<svg width="298" height="240" viewBox="0 0 298 240" fill="none" xmlns="http://www.w3.org/2000/svg">
<path d="M148.846 240.228C231.051 240.228 297.691 204.987 297.691 161.516C297.691 118.045 231.051 82.8047 148.846 82.8047C66.6405 82.8047 0 118.045 0 161.516C0 204.987 66.6405 240.228 148.846 240.228Z" fill="#F5F5F5"/>
<path d="M66.1033 195.748C91.0067 195.748 111.195 184.092 111.195 169.712C111.195 155.333 91.0067 143.676 66.1033 143.676C41.1999 143.676 21.0117 155.333 21.0117 169.712C21.0117 184.092 41.1999 195.748 66.1033 195.748Z" fill="#E0E0E0"/>
<path d="M233.965 202.941C258.587 202.941 278.547 191.387 278.547 177.135C278.547 162.882 258.587 151.328 233.965 151.328C209.343 151.328 189.383 162.882 189.383 177.135C189.383 191.387 209.343 202.941 233.965 202.941Z" fill="#E0E0E0"/>
<path d="M254.827 144.647C254.827 144.647 252.771 134.411 255.205 125.163C257.64 115.915 262.826 108.965 268.95 106.437C275.074 103.909 281.993 108.058 276.565 114.207C271.137 120.356 260.491 128.275 259.795 144.932L254.827 144.647Z" fill="#5477A5"/>
<path opacity="0.15" d="M254.827 144.647C254.827 144.647 252.771 134.411 255.205 125.163C257.64 115.915 262.826 108.965 268.95 106.437C275.074 103.909 281.993 108.058 276.565 114.207C271.137 120.356 260.491 128.275 259.795 144.932L254.827 144.647Z" fill="black"/>
<path d="M255.84 141.483H255.772C255.725 141.48 255.68 141.468 255.638 141.447C255.596 141.426 255.559 141.398 255.528 141.362C255.498 141.327 255.474 141.286 255.46 141.242C255.445 141.198 255.439 141.151 255.442 141.105C256.809 122.602 267.243 111.696 272.547 108.509C272.588 108.486 272.633 108.47 272.68 108.464C272.727 108.458 272.774 108.461 272.82 108.473C272.865 108.485 272.908 108.506 272.945 108.535C272.983 108.563 273.014 108.599 273.038 108.64C273.062 108.681 273.077 108.726 273.083 108.772C273.09 108.819 273.087 108.867 273.074 108.912C273.062 108.958 273.041 109 273.013 109.038C272.984 109.075 272.948 109.107 272.908 109.13C267.697 112.236 257.492 122.956 256.138 141.173C256.129 141.25 256.095 141.323 256.042 141.379C255.988 141.435 255.917 141.472 255.84 141.483Z" fill="white"/>
<path d="M260.428 155C260.271 153.309 259.823 151.657 259.105 150.118C258.366 148.466 257.006 147.013 256.577 145.23C256.338 143.674 256.724 142.086 257.652 140.814C258.515 139.603 259.77 138.628 260.235 137.218C260.701 135.808 260.235 134.2 260.31 132.678C260.384 130.995 261.109 129.407 262.331 128.248C263.554 127.09 265.178 126.451 266.863 126.467C268.428 126.467 269.925 127.088 271.434 127.486C272.949 127.985 274.583 127.985 276.098 127.486C277.731 126.839 279.414 126.324 281.129 125.945C284.061 125.386 287.961 125.666 289.551 128.585C289.985 129.291 290.174 130.12 290.092 130.945V131.051C289.644 133.318 287.054 134.268 285.527 135.634C285.11 136.007 284.402 136.56 284.334 137.168C284.266 137.777 284.905 138.46 285.253 138.945C286.141 140.187 287.297 141.317 287.675 142.839C288.222 145.025 286.787 147.497 285.117 148.795C283.463 149.967 281.54 150.702 279.527 150.932C278.533 151.081 277.44 151.199 276.744 151.926C276.461 152.26 276.252 152.65 276.129 153.071C276.006 153.491 275.972 153.932 276.03 154.367C276.086 155.242 276.334 156.093 276.415 156.963C276.509 158.349 276.229 159.736 275.604 160.977C274.979 162.218 274.032 163.268 272.862 164.018C270.903 165.23 268.557 165.653 266.297 165.205C264.434 164.863 262.571 163.074 261.894 161.329C261.118 159.296 260.625 157.167 260.428 155Z" fill="#5477A5"/>
<path d="M262.106 159.9C262.062 159.903 262.018 159.897 261.976 159.883C261.934 159.869 261.896 159.846 261.863 159.816C261.831 159.787 261.805 159.751 261.787 159.711C261.768 159.67 261.759 159.627 261.758 159.583C260.683 138.708 279.993 129.398 284.832 128.211C284.917 128.192 285.007 128.207 285.082 128.252C285.157 128.297 285.212 128.369 285.235 128.454C285.256 128.539 285.242 128.63 285.197 128.705C285.152 128.781 285.079 128.835 284.993 128.857C280.26 130.019 261.392 139.124 262.416 159.552C262.42 159.639 262.389 159.724 262.331 159.789C262.273 159.853 262.193 159.893 262.106 159.9Z" fill="white"/>
<path d="M281.424 142.934C281.357 142.943 281.29 142.93 281.231 142.897C278.844 141.882 276.261 141.406 273.668 141.504C271.076 141.601 268.536 142.27 266.232 143.462C266.191 143.481 266.147 143.493 266.102 143.495C266.056 143.498 266.011 143.491 265.969 143.476C265.926 143.461 265.887 143.438 265.853 143.408C265.819 143.378 265.792 143.341 265.772 143.3C265.753 143.26 265.741 143.215 265.739 143.17C265.736 143.125 265.743 143.08 265.758 143.037C265.773 142.994 265.796 142.955 265.826 142.922C265.856 142.888 265.893 142.86 265.934 142.841C268.332 141.602 270.974 140.909 273.672 140.813C276.37 140.716 279.055 141.218 281.536 142.282C281.613 142.323 281.672 142.393 281.698 142.476C281.725 142.56 281.718 142.651 281.678 142.729C281.658 142.782 281.623 142.829 281.578 142.865C281.534 142.901 281.48 142.925 281.424 142.934Z" fill="white"/>
<path d="M41.2736 136.188C42.0251 131.381 41.727 123.108 38.0128 114.419C34.0378 105.102 28.0753 98.4567 22.1935 99.5126C16.7217 100.475 16.9577 107.761 23.8643 116.555C28.7088 122.723 34.249 129.698 35.7955 137.934L38.1184 149.362L41.2736 136.188Z" fill="#5477A5"/>
<g opacity="0.15">
<path opacity="0.15" d="M41.2775 136.188C42.029 131.381 41.7309 123.108 38.0167 114.419C34.0417 105.102 28.0792 98.4567 22.1974 99.5126C16.7256 100.475 16.9616 107.761 23.8682 116.555C28.7127 122.723 34.2529 129.698 35.7994 137.934L38.1223 149.362L41.2775 136.188Z" fill="black"/>
</g>
<path d="M39.9333 139.673C39.8651 139.655 39.8038 139.617 39.7573 139.563C39.7108 139.51 39.6813 139.444 39.6725 139.374C38.0639 125.151 31.3436 109.562 24.0519 103.059C23.9885 102.993 23.9531 102.905 23.9531 102.814C23.9531 102.722 23.9885 102.634 24.0519 102.568C24.0832 102.536 24.1208 102.51 24.1625 102.492C24.2041 102.474 24.2489 102.465 24.2941 102.465C24.3394 102.465 24.3842 102.474 24.4258 102.492C24.4675 102.51 24.5051 102.536 24.5364 102.568C31.946 109.146 38.7595 124.928 40.3867 139.319C40.3928 139.364 40.3897 139.41 40.3776 139.454C40.3654 139.498 40.3445 139.54 40.3162 139.576C40.2878 139.611 40.2524 139.641 40.2123 139.663C40.1721 139.685 40.128 139.699 40.0824 139.704L39.9333 139.673Z" fill="white"/>
<path d="M35.2206 161.778C34.8355 161.909 34.4256 161.977 33.9784 162.12C32.032 162.77 30.0126 163.177 27.9662 163.331C23.9539 163.567 19.7304 162.71 16.5194 160.182C15.8548 159.666 15.184 158.896 15.4014 158.089C15.5629 157.468 16.1654 157.101 16.7181 156.791L24.7241 152.337L14.9294 153.101C14.2902 153.198 13.6378 153.155 13.0164 152.977C12.2024 152.585 11.5455 151.928 11.1531 151.114C10.4491 149.926 9.91199 148.647 9.55689 147.313C9.36435 146.58 9.26497 145.686 9.80533 145.151C10.0864 144.912 10.4208 144.744 10.7804 144.661C14.1638 143.61 17.6526 142.935 21.1838 142.648C17.805 141.338 14.1468 141.17 10.5755 140.891C10.3191 140.89 10.0656 140.837 9.83017 140.735C9.26497 140.45 9.11591 139.723 9.06001 139.096C8.69356 134.965 9.75564 130.748 10.1718 126.674C10.3084 125.345 10.4575 125.394 11.681 125.562C17.2088 126.332 22.3391 127.81 27.7115 129.189C28.3299 129.28 28.9026 129.568 29.345 130.009C29.5357 130.319 29.6626 130.663 29.718 131.023C29.7735 131.382 29.7565 131.749 29.668 132.102C29.3921 134.124 28.7879 136.088 27.8792 137.916C29.4197 136.593 30.6858 134.981 31.6058 133.17C31.7754 132.705 32.1 132.313 32.525 132.059C32.8061 131.992 33.0989 131.991 33.3802 132.057C33.6616 132.123 33.9238 132.253 34.1461 132.438C41.3073 136.959 41.3819 145.835 39.9533 153.263C39.885 153.629 39.8105 153.996 39.736 154.362C39.5009 155.868 38.9824 157.316 38.2081 158.629C37.6572 159.569 36.9916 160.437 36.2268 161.213C35.9385 161.475 35.5945 161.668 35.2206 161.778Z" fill="#5477A5"/>
<path d="M34.7789 162.771C34.7181 162.748 34.6649 162.708 34.6254 162.657C34.5859 162.605 34.5616 162.543 34.5553 162.479C33.5678 151.107 20.5806 133.418 14.8666 129.884C14.8281 129.86 14.7946 129.829 14.7682 129.793C14.7417 129.756 14.7227 129.715 14.7123 129.671C14.7019 129.627 14.7003 129.582 14.7076 129.537C14.7149 129.493 14.7309 129.45 14.7548 129.412C14.8045 129.335 14.8822 129.28 14.9713 129.259C15.0605 129.238 15.1543 129.253 15.233 129.3C21.0403 132.89 34.2385 150.864 35.2447 162.417C35.249 162.462 35.2441 162.508 35.2304 162.551C35.2167 162.595 35.1944 162.635 35.1649 162.67C35.1354 162.704 35.0992 162.733 35.0585 162.753C35.0178 162.774 34.9734 162.786 34.928 162.789C34.8775 162.795 34.8263 162.789 34.7789 162.771Z" fill="white"/>
<path d="M222.013 114.705C222.013 94.0286 209.473 69.9859 194.001 61.0546C186.908 56.9429 180.262 56.5019 175.331 59.4584L163.48 66.4146L166.853 73.4454C166.248 76.3501 165.952 79.3106 165.971 82.2774C165.971 102.96 178.517 126.996 193.983 135.928C195.025 136.531 196.104 137.071 197.212 137.543L200.411 144.3L212.193 137.499C218.193 134.108 222.013 126.108 222.013 114.705Z" fill="#5477A5"/>
<path d="M198.729 145.166C211.13 139.915 213.645 117.856 204.346 95.897C195.048 73.9377 177.457 60.3931 165.056 65.6443C152.655 70.8954 150.14 92.9539 159.438 114.913C168.737 136.872 186.328 150.417 198.729 145.166Z" fill="#5477A5"/>
<path opacity="0.1" d="M221.697 120.06C221.666 120.296 221.641 120.526 221.604 120.755C221.542 121.24 221.468 121.724 221.387 122.19C221.25 122.96 221.095 123.706 220.915 124.426C220.809 124.911 220.679 125.383 220.536 125.842C220.468 126.072 220.393 126.296 220.325 126.519C220.256 126.743 220.176 126.973 220.101 127.19C219.946 127.631 219.778 128.053 219.611 128.476L219.35 129.097C219.157 129.532 218.965 129.948 218.729 130.339L218.53 130.718C218.207 131.339 217.859 131.892 217.493 132.438L217.306 132.712L217.163 132.904C216.288 134.138 215.242 135.242 214.058 136.184L213.791 136.395C213.629 136.519 213.462 136.643 213.294 136.755L212.673 137.159C212.493 137.27 212.3 137.388 212.114 137.488L200.648 144.171C205.437 141.19 208.723 135.171 209.692 126.78C209.883 125.071 209.976 123.351 209.971 121.631C209.971 112.52 207.536 102.75 203.487 93.9055L215.511 86.9492C219.567 95.7936 222.014 105.582 222.014 114.7C222.015 116.408 221.917 118.115 221.722 119.811C221.722 119.898 221.71 119.979 221.697 120.06Z" fill="black"/>
<path opacity="0.1" d="M221.728 119.812C221.635 120.626 221.523 121.421 221.387 122.191C221.25 122.961 221.095 123.707 220.915 124.427C220.797 124.912 220.666 125.384 220.536 125.843C220.468 126.073 220.393 126.297 220.325 126.52C220.256 126.744 220.176 126.974 220.101 127.191C219.946 127.632 219.778 128.054 219.611 128.477L219.35 129.098C219.157 129.533 218.965 129.949 218.729 130.34L218.53 130.719C218.207 131.34 217.859 131.893 217.493 132.439C217.387 132.601 217.281 132.756 217.163 132.905C216.288 134.139 215.242 135.243 214.058 136.185L213.791 136.396C213.629 136.52 213.462 136.644 213.294 136.756L212.673 137.16C212.493 137.272 212.3 137.39 212.114 137.489L200.648 144.172C205.437 141.191 208.723 135.172 209.692 126.781L221.728 119.812Z" fill="black"/>
<path opacity="0.4" d="M215.512 86.9531L203.5 93.9094C198.358 82.6613 190.594 72.8977 181.911 67.8793C174.886 63.8111 168.464 63.5316 163.539 66.3948L175.34 59.4634C180.271 56.5008 186.917 56.9417 194.01 61.0534C202.643 66.0532 210.37 75.761 215.512 86.9531Z" fill="white"/>
<path d="M201.208 116.173C201.208 121.943 199.705 126.613 197.177 129.632C193.656 133.855 188.19 134.886 182.066 131.321C175.942 127.756 170.439 120.365 166.918 112.067C164.39 106.111 162.887 99.7137 162.887 93.9375L201.208 116.173Z" fill="#37474F"/>
<path d="M197.178 129.63C193.656 133.853 188.191 134.884 182.066 131.319C175.942 127.754 170.44 120.363 166.918 112.065C170.843 109.233 176.197 109.196 182.066 112.581C187.936 115.966 193.252 122.202 197.178 129.63Z" fill="#F28F8F"/>
<path d="M189.773 95.894C189.773 98.8504 191.326 102.148 193.245 103.26C195.165 104.372 196.717 102.869 196.717 99.9124C196.717 96.956 195.165 93.658 193.245 92.5462C191.326 91.4345 189.773 92.9375 189.773 95.894Z" fill="#37474F"/>
<path d="M167.805 83.1781C167.805 86.1345 169.357 89.4325 171.277 90.5381C173.196 91.6437 174.749 90.153 174.749 87.1966C174.749 84.2402 173.19 80.9422 171.277 79.8304C169.364 78.7186 167.805 80.1969 167.805 83.1781Z" fill="#37474F"/>
<path d="M88.8984 59.1508C88.8984 38.2882 101.581 14.053 117.227 5.01604C124.407 0.873324 131.121 0.432349 136.114 3.41361L148.095 10.432L144.667 17.5249C145.28 20.4556 145.578 23.4436 145.555 26.4377C145.555 47.3003 132.872 71.5355 117.227 80.5662C116.174 81.1753 115.085 81.7187 113.966 82.1935L110.73 89.0255L98.8484 82.1935C92.7617 78.7278 88.8984 70.6597 88.8984 59.1508Z" fill="#5477A5"/>
<path d="M152.165 59.4127C161.589 37.2645 159.07 14.9875 146.54 9.65558C134.009 4.32367 116.211 17.956 106.787 40.1042C97.3625 62.2524 99.8809 84.5294 112.412 89.8613C124.942 95.1932 142.74 81.5609 152.165 59.4127Z" fill="#5477A5"/>
<path opacity="0.1" d="M89.2214 64.554L89.3146 65.2558C89.3829 65.7465 89.4574 66.231 89.5382 66.6968C89.6748 67.4794 89.8301 68.2309 90.0164 68.9576C90.122 69.442 90.2524 69.9203 90.4015 70.3861C90.4698 70.6159 90.5444 70.8457 90.6127 71.0693C90.681 71.2929 90.7679 71.5227 90.8425 71.7463C90.9977 72.1873 91.1654 72.6158 91.3331 73.0444C91.4201 73.2431 91.507 73.4481 91.6002 73.6655C91.7928 74.1003 91.9915 74.5226 92.2213 74.9077L92.4201 75.2865C92.7492 75.9076 93.1033 76.4728 93.4697 77.0194C93.5318 77.1188 93.5939 77.2057 93.6622 77.2989L93.7989 77.4914C94.6741 78.7348 95.7194 79.8491 96.9044 80.8019L97.1714 81.0131C97.3391 81.1435 97.5068 81.2615 97.6745 81.3795C97.8422 81.4975 98.0782 81.6528 98.2956 81.7832C98.513 81.9137 98.6745 82.013 98.8608 82.1186L110.506 88.8948C105.662 85.8887 102.32 79.8205 101.364 71.355C101.171 69.631 101.075 67.8974 101.078 66.1626C101.078 56.9642 103.563 47.1136 107.637 38.2133L95.4759 31.1328C91.3704 40.058 88.8984 49.921 88.8984 59.1318C88.8978 60.8543 88.9953 62.5755 89.1904 64.2869C89.2214 64.3863 89.2214 64.467 89.2214 64.554Z" fill="black"/>
<path opacity="0.1" d="M89.1836 64.3086C89.283 65.1284 89.3948 65.9296 89.5314 66.6998C89.668 67.47 89.8233 68.2339 90.0097 68.9606C90.1277 69.4451 90.2581 69.9233 90.3947 70.3891C90.4631 70.6189 90.5376 70.8487 90.6059 71.0723C90.6742 71.2959 90.7612 71.5257 90.8357 71.7493C90.991 72.1903 91.1587 72.6189 91.3264 73.0474C91.4133 73.2462 91.5003 73.4511 91.5935 73.6685C91.786 74.1033 91.9847 74.5256 92.2145 74.9107L92.4133 75.2896C92.7425 75.9107 93.0965 76.4759 93.4629 77.0224C93.5685 77.1901 93.6803 77.3454 93.7921 77.4945C94.6673 78.7378 95.7127 79.8522 96.8976 80.8049L97.1647 81.0161C97.3324 81.1465 97.5001 81.2645 97.6678 81.3825C97.8355 81.5005 98.0715 81.6558 98.2889 81.7862C98.5063 81.9167 98.6677 82.016 98.8541 82.1216L110.506 88.8978C105.661 85.8917 102.32 79.8236 101.363 71.358L89.1836 64.3086Z" fill="black"/>
<path opacity="0.4" d="M95.4766 31.1327L107.638 38.1572C112.842 26.8036 120.681 16.953 129.469 11.8849C136.575 7.77943 143.077 7.5372 148.052 10.3942L136.115 3.41312C131.146 0.431861 124.407 0.872838 117.227 5.02176C108.476 10.0651 100.675 19.8598 95.4766 31.1327Z" fill="white"/>
<path d="M121.518 40.1695C121.518 43.1508 119.947 46.4798 118.009 47.6226C116.071 48.7655 114.5 47.2314 114.5 44.2439C114.5 41.2564 116.071 37.9398 118.009 36.7907C119.947 35.6417 121.518 37.1882 121.518 40.1695Z" fill="#37474F"/>
<path d="M143.722 27.3435C143.722 30.3247 142.15 33.6538 140.212 34.7966C138.275 35.9395 136.703 34.3991 136.703 31.4179C136.703 28.4366 138.275 25.1075 140.212 23.9647C142.15 22.8219 143.722 24.356 143.722 27.3435Z" fill="#37474F"/>
<path d="M122.829 75.0967C121.378 75.1013 119.941 74.8207 118.599 74.2707C114.612 72.6496 111.55 68.6808 109.978 63.0164C109.905 62.7838 109.88 62.539 109.903 62.2963C109.926 62.0537 109.998 61.8182 110.114 61.6039C110.231 61.3895 110.389 61.2007 110.579 61.0487C110.77 60.8966 110.989 60.7843 111.223 60.7186C111.458 60.6528 111.704 60.6349 111.946 60.6659C112.187 60.6968 112.42 60.7761 112.631 60.8989C112.842 61.0216 113.025 61.1855 113.171 61.3807C113.317 61.5759 113.423 61.7984 113.481 62.0351C114.723 66.5629 117.052 69.7118 119.978 70.9043C122.462 71.9229 125.444 71.5254 128.561 69.7118C136.015 65.4014 142.797 54.1285 145.43 41.6569C145.53 41.1841 145.813 40.7703 146.218 40.5065C146.623 40.2427 147.116 40.1505 147.589 40.2501C148.061 40.3498 148.475 40.6332 148.739 41.0379C149.003 41.4427 149.095 41.9357 148.995 42.4084C146.114 56.0415 138.81 67.9976 130.363 72.8421C128.092 74.2411 125.494 75.0186 122.829 75.0967Z" fill="#37474F"/>
<path d="M107.777 64.4772C106.975 64.5021 106.179 64.336 105.454 63.9928C105.14 63.8084 104.909 63.5096 104.811 63.1589C104.712 62.8082 104.753 62.4329 104.925 62.1117C105.096 61.7905 105.386 61.5482 105.732 61.4358C106.079 61.3233 106.456 61.3493 106.783 61.5084C107.875 61.7926 109.033 61.6804 110.05 61.1916C110.911 60.8235 111.675 60.2615 112.283 59.5493C112.89 58.8371 113.325 57.9942 113.553 57.0862C113.658 56.7271 113.901 56.4242 114.229 56.2443C114.557 56.0643 114.943 56.022 115.302 56.1266C115.661 56.2312 115.964 56.4742 116.144 56.802C116.323 57.1299 116.366 57.5159 116.261 57.875C115.774 59.7579 114.677 61.4267 113.143 62.6219C111.608 63.8171 109.722 64.4716 107.777 64.4834V64.4772Z" fill="#37474F"/>
<path d="M144.201 43.4912C143.397 43.5173 142.598 43.349 141.872 43.0006C141.558 42.8162 141.327 42.5174 141.229 42.1667C141.13 41.816 141.171 41.4407 141.343 41.1195C141.514 40.7983 141.804 40.556 142.15 40.4436C142.497 40.3311 142.874 40.3571 143.201 40.5162C144.293 40.8004 145.451 40.6882 146.468 40.1994C147.33 39.833 148.095 39.2714 148.703 38.559C149.311 37.8466 149.745 37.0028 149.971 36.094C150.076 35.7349 150.319 35.432 150.647 35.2521C150.975 35.0721 151.361 35.0298 151.72 35.1344C152.079 35.239 152.382 35.482 152.561 35.8098C152.741 36.1377 152.784 36.5237 152.679 36.8828C152.19 38.7642 151.095 40.432 149.562 41.6278C148.029 42.8236 146.145 43.4807 144.201 43.4975V43.4912Z" fill="#37474F"/>
</svg>
