<svg width="214" height="219" viewBox="0 0 214 219" fill="none" xmlns="http://www.w3.org/2000/svg">
<g opacity="0.3">
<path d="M212.688 216.034L212.482 90.0219C212.44 89.2925 212.226 88.5833 211.86 87.9512C211.493 87.3192 210.983 86.782 210.372 86.3828L61.7001 0.923419C60.4871 0.256241 59.6016 0.802114 59.6016 2.13647L59.8442 128.1C59.8839 128.83 60.0959 129.54 60.4627 130.172C60.8296 130.805 61.3409 131.342 61.9549 131.739L210.638 217.259C211.767 217.926 212.688 217.38 212.688 216.034Z" fill="white"/>
</g>
<path d="M211.547 218.144C211.119 218.127 210.701 218.002 210.334 217.78L61.6506 132.26C60.9409 131.813 60.3497 131.202 59.9273 130.477C59.5048 129.753 59.2638 128.937 59.2245 128.099L58.9941 2.13612C58.9433 1.76671 59.0035 1.39055 59.1671 1.05545C59.3307 0.720359 59.5902 0.441471 59.9127 0.254233C60.2351 0.0669951 60.606 -0.0201384 60.9781 0.00391755C61.3502 0.0279735 61.7067 0.162126 62.0024 0.389326L210.686 85.8366C211.394 86.2848 211.984 86.8968 212.407 87.6209C212.829 88.3451 213.071 89.1601 213.112 89.9973L213.318 216.009C213.347 216.377 213.279 216.746 213.119 217.078C212.959 217.41 212.714 217.694 212.408 217.901C212.148 218.058 211.851 218.142 211.547 218.144ZM60.7651 1.18994C60.6856 1.16886 60.602 1.16886 60.5225 1.18994C60.4041 1.29194 60.3132 1.422 60.2581 1.56823C60.203 1.71447 60.1855 1.87219 60.2071 2.02695L60.4133 128.039C60.4478 128.676 60.6342 129.296 60.9571 129.847C61.28 130.398 61.7299 130.863 62.2693 131.205L210.953 216.725C211.317 216.931 211.632 216.992 211.826 216.87C212.02 216.749 212.142 216.458 212.142 216.033L211.935 90.0216C211.896 89.4004 211.714 88.7968 211.403 88.258C211.091 87.7192 210.659 87.2599 210.14 86.9162L61.3959 1.39616C61.2066 1.27491 60.9895 1.20394 60.7651 1.18994Z" fill="#FFC727"/>
<path d="M198.564 188.229C194.622 185.427 192.317 182.891 190.752 163.41L190.619 161.748C189.151 143.443 188.192 131.361 179.847 126.375C175.844 123.949 172.641 126.375 169.257 129.008C166.188 131.349 163.034 133.751 159.48 131.725C153.232 128.086 152.201 120.88 150.26 107.731C150.018 106.105 149.775 104.395 149.496 102.6C149.072 99.7976 148.708 97.1895 148.368 94.7391C146.451 80.9346 145.287 72.5889 138.227 68.331C137.532 67.8383 136.731 67.5148 135.888 67.3864C135.046 67.2579 134.185 67.328 133.375 67.5911C128.025 69.4592 123.84 80.7769 119.412 92.774C119.073 93.6595 118.745 94.5936 118.394 95.5276C115.179 104.371 111.54 114.403 106.506 116.259C105.794 116.519 105.032 116.615 104.278 116.54C103.524 116.464 102.797 116.219 102.151 115.822C97.1409 112.983 96.2432 105.22 95.382 97.699C94.5207 90.1781 93.6837 82.6208 88.9528 79.7701C88.5517 79.5107 88.0929 79.354 87.6169 79.3138C87.1409 79.2736 86.6624 79.3512 86.2234 79.5396C80.3523 81.8202 75.1483 99.191 75.0998 99.3609L73.8867 99.0212C74.1051 98.2812 79.309 80.9104 85.7261 78.3994C86.3389 78.1455 87.0037 78.0428 87.6645 78.0998C88.3253 78.1568 88.9627 78.3719 89.5229 78.7269C94.7512 81.8565 95.661 89.8263 96.5465 97.5292C97.432 105.232 98.2326 112.207 102.721 114.742C103.21 115.053 103.765 115.247 104.342 115.308C104.918 115.369 105.501 115.296 106.045 115.094C110.545 113.432 114.245 103.267 117.217 95.0909C117.569 94.1448 117.896 93.2228 118.236 92.3252C122.967 79.5275 127.055 68.4766 132.938 66.4144C133.913 66.0983 134.948 66.0116 135.962 66.1609C136.976 66.3103 137.942 66.6918 138.785 67.2757C146.33 71.8368 147.531 80.3888 149.496 94.5572C149.836 96.9833 150.2 99.6035 150.624 102.393C150.903 104.201 151.146 105.911 151.388 107.525C153.244 120.31 154.276 127.346 160.013 130.645C162.864 132.283 165.448 130.306 168.444 128.025C171.84 125.429 175.722 122.506 180.393 125.308C189.26 130.621 190.255 142.958 191.747 161.627L191.88 163.289C193.481 183.158 195.883 184.857 199.158 187.222L198.564 188.229Z" fill="#FFC727"/>
<g opacity="0.4">
<path d="M198.568 188.231C194.625 185.429 192.321 182.893 190.756 163.412L190.622 161.75C189.155 143.445 188.196 131.363 179.851 126.377C175.847 123.951 172.645 126.377 169.261 129.01C166.192 131.351 163.038 133.753 159.483 131.727C153.236 128.088 152.205 120.882 150.264 107.733C150.022 106.107 149.779 104.397 149.5 102.602C149.075 99.7995 148.712 97.1915 148.372 94.7411C146.455 80.9366 145.291 72.5908 138.231 68.333C137.536 67.8403 136.735 67.5168 135.892 67.3883C135.05 67.2599 134.189 67.33 133.379 67.593C128.029 69.4611 123.844 80.7789 119.416 92.776C119.077 93.6615 118.749 94.5955 118.397 95.5296C115.183 104.373 111.544 114.405 106.51 116.261C105.798 116.521 105.036 116.617 104.282 116.542C103.528 116.466 102.801 116.221 102.155 115.824C97.1448 112.985 96.2471 105.222 95.3859 97.7009C94.5246 90.18 93.6876 82.6227 88.9567 79.7721C88.5556 79.5127 88.0968 79.356 87.6208 79.3158C87.1448 79.2756 86.6663 79.3531 86.2273 79.5416C80.3562 81.8221 75.1522 99.193 75.1037 99.3628L73.8906 99.0232C74.109 98.2832 79.313 80.9123 85.73 78.4013C86.3428 78.1475 87.0076 78.0448 87.6684 78.1018C88.3292 78.1588 88.9666 78.3738 89.5268 78.7288C94.7551 81.8585 95.6649 89.8282 96.5504 97.5311C97.4359 105.234 98.2365 112.209 102.725 114.744C103.214 115.055 103.769 115.249 104.345 115.31C104.922 115.371 105.505 115.298 106.049 115.096C110.549 113.434 114.249 103.269 117.221 95.0929C117.573 94.1467 117.9 93.2248 118.24 92.3271C122.971 79.5295 127.059 68.4786 132.942 66.4164C133.917 66.1003 134.952 66.0135 135.966 66.1629C136.98 66.3123 137.946 66.6938 138.789 67.2776C146.334 71.8387 147.535 80.3907 149.5 94.5591C149.84 96.9852 150.204 99.6054 150.628 102.395C150.907 104.203 151.15 105.913 151.392 107.527C153.248 120.312 154.279 127.348 160.017 130.647C162.868 132.285 165.452 130.308 168.448 128.027C171.844 125.431 175.726 122.508 180.396 125.31C189.264 130.623 190.258 142.96 191.751 161.629L191.884 163.291C193.485 183.16 195.887 184.859 199.162 187.224L198.568 188.231Z" fill="black"/>
</g>
<path d="M178.051 121.013C178.953 121.604 179.704 122.398 180.246 123.331C180.787 124.264 181.103 125.31 181.168 126.387C181.168 128.364 179.773 129.165 178.063 128.182C177.157 127.595 176.402 126.803 175.86 125.869C175.318 124.935 175.005 123.886 174.945 122.808C174.945 120.88 176.292 120.079 178.051 121.013Z" fill="#FFC727"/>
<g opacity="0.2">
<path d="M178.055 121.015C178.957 121.606 179.708 122.4 180.25 123.333C180.791 124.266 181.107 125.312 181.172 126.389C181.172 128.366 179.777 129.167 178.067 128.184C177.161 127.597 176.406 126.805 175.864 125.871C175.322 124.937 175.009 123.888 174.949 122.81C174.949 120.882 176.296 120.081 178.055 121.015Z" fill="black"/>
</g>
<path d="M138.547 64.2313C139.45 64.8202 140.202 65.6136 140.741 66.5472C141.281 67.4808 141.593 68.5284 141.652 69.6051C141.652 71.5823 140.269 72.383 138.559 71.4004C137.652 70.8142 136.897 70.0217 136.355 69.0877C135.813 68.1537 135.5 67.1048 135.441 66.0266C135.441 64.0008 136.824 63.2487 138.547 64.2313Z" fill="#FFC727"/>
<g opacity="0.5">
<path d="M138.547 64.2293C139.45 64.8183 140.202 65.6117 140.741 66.5453C141.281 67.4789 141.593 68.5265 141.652 69.6031C141.652 71.5804 140.269 72.381 138.559 71.3984C137.652 70.8123 136.897 70.0198 136.355 69.0858C135.813 68.1518 135.5 67.1028 135.441 66.0246C135.441 63.9988 136.824 63.2467 138.547 64.2293Z" fill="white"/>
</g>
<path d="M89.2809 75.6965C90.1875 76.2801 90.9427 77.0703 91.4847 78.0023C92.0266 78.9344 92.3397 79.9817 92.3984 81.0582C92.3984 83.0476 91.0155 83.8482 89.293 82.8657C88.3904 82.276 87.6391 81.4824 87.0997 80.549C86.5603 79.6155 86.2478 78.5683 86.1876 77.4918C86.1754 75.5146 87.5705 74.7018 89.2809 75.6965Z" fill="#FFC727"/>
<path opacity="0.65" d="M133.684 210.478V84.4663C133.643 83.7377 133.432 83.0289 133.068 82.3968C132.703 81.7646 132.195 81.227 131.585 80.8272L2.74701 6.44295C1.53396 5.77577 0.648438 6.32165 0.648438 7.656V133.668C0.687808 134.396 0.89832 135.106 1.26292 135.738C1.62752 136.37 2.13595 136.908 2.74701 137.307L131.585 211.691C132.75 212.37 133.684 211.824 133.684 210.478Z" fill="white"/>
<path d="M132.529 212.588C132.101 212.572 131.683 212.447 131.316 212.225L2.44179 137.84C1.73392 137.389 1.14437 136.774 0.722331 136.048C0.300287 135.322 0.057992 134.506 0.0156873 133.667V7.65581C-0.0322051 7.28738 0.0301371 6.91302 0.194824 6.57998C0.359511 6.24695 0.619167 5.97017 0.941023 5.78459C1.26288 5.599 1.63251 5.51293 2.00324 5.53723C2.37397 5.56154 2.72919 5.69513 3.02406 5.92115L131.862 80.3054C132.57 80.7544 133.159 81.3665 133.581 82.0905C134.004 82.8145 134.246 83.6291 134.288 84.4661V210.478C134.317 210.845 134.248 211.214 134.089 211.547C133.929 211.879 133.684 212.163 133.378 212.37C133.119 212.516 132.827 212.591 132.529 212.588ZM1.81101 6.77028C1.73145 6.74974 1.64797 6.74974 1.56841 6.77028C1.45002 6.87228 1.3591 7.00234 1.304 7.14857C1.2489 7.2948 1.23136 7.45253 1.253 7.60729V133.667C1.29105 134.29 1.47296 134.896 1.78445 135.437C2.09595 135.978 2.52854 136.439 3.04831 136.785L131.886 211.169C132.01 211.266 132.156 211.33 132.31 211.355C132.465 211.381 132.624 211.367 132.772 211.315C132.966 211.206 133.075 210.902 133.075 210.478V84.4661C133.038 83.8445 132.856 83.2402 132.545 82.7011C132.233 82.162 131.8 81.703 131.28 81.3607L2.44179 6.98863C2.25608 6.85829 2.03756 6.78264 1.81101 6.77028Z" fill="#FFC727"/>
<path d="M111.521 181.839V98.915C111.501 98.5502 111.394 98.1954 111.211 97.8793C111.028 97.5632 110.772 97.2947 110.466 97.0955L97.7897 89.8172C97.2075 89.4775 96.7344 89.7444 96.7344 90.4237V173.299C96.7523 173.665 96.8575 174.021 97.0411 174.337C97.2247 174.654 97.4814 174.922 97.7897 175.119L110.466 182.397C111.048 182.785 111.521 182.506 111.521 181.839Z" fill="#FFC727"/>
<g opacity="0.3">
<path d="M111.518 181.837V98.9131C111.497 98.5483 111.39 98.1935 111.207 97.8774C111.024 97.5613 110.769 97.2927 110.462 97.0935L97.7858 89.8152C97.2036 89.4755 96.7305 89.7424 96.7305 90.4217V173.297C96.7484 173.663 96.8536 174.019 97.0372 174.335C97.2208 174.652 97.4775 174.92 97.7858 175.117L110.462 182.395C111.044 182.783 111.518 182.504 111.518 181.837Z" fill="black"/>
</g>
<path d="M86.8808 167.61V124.522C86.86 124.157 86.7536 123.803 86.5703 123.487C86.3869 123.17 86.1318 122.902 85.8255 122.703L73.137 115.424C72.5668 115.097 72.0938 115.424 72.0938 116.031V159.131C72.1151 159.494 72.2204 159.847 72.4014 160.163C72.5825 160.479 72.8342 160.748 73.137 160.95L85.8255 168.228C86.4077 168.556 86.8808 168.325 86.8808 167.61Z" fill="#FFC727"/>
<g opacity="0.2">
<path d="M86.8847 167.608V124.52C86.8639 124.155 86.7575 123.801 86.5742 123.485C86.3908 123.168 86.1357 122.9 85.8294 122.701L73.1409 115.422C72.5707 115.095 72.0977 115.422 72.0977 116.029V159.129C72.119 159.492 72.2243 159.845 72.4053 160.161C72.5864 160.477 72.8381 160.746 73.1409 160.948L85.8294 168.226C86.4116 168.554 86.8847 168.324 86.8847 167.608Z" fill="white"/>
</g>
<path d="M62.2675 153.391V87.5342C62.2467 87.1693 62.1403 86.8146 61.957 86.4985C61.7737 86.1824 61.5185 85.9138 61.2122 85.7146L48.5237 78.4363C47.9536 78.0966 47.4805 78.3635 47.4805 79.0428V144.887C47.5 145.251 47.6045 145.605 47.7857 145.921C47.9669 146.237 48.2196 146.506 48.5237 146.707L61.2122 153.985C61.7702 154.325 62.2675 154.058 62.2675 153.391Z" fill="#FFC727"/>
<g opacity="0.2">
<path d="M62.2715 153.389V87.5322C62.2506 87.1674 62.1442 86.8126 61.9609 86.4965C61.7776 86.1804 61.5224 85.9119 61.2161 85.7126L48.5276 78.4343C47.9575 78.0947 47.4844 78.3616 47.4844 79.0409V144.885C47.5039 145.249 47.6084 145.603 47.7896 145.919C47.9708 146.235 48.2235 146.504 48.5276 146.705L61.2161 153.983C61.7741 154.323 62.2715 154.056 62.2715 153.389Z" fill="black"/>
</g>
<path d="M37.5953 139.211V44.8595C37.5767 44.4955 37.4726 44.1411 37.2913 43.8249C37.1101 43.5088 36.8568 43.2398 36.552 43.0399L23.8635 35.7616C23.2934 35.422 22.8203 35.7616 22.8203 36.3682V130.671C22.8417 131.034 22.947 131.387 23.128 131.703C23.309 132.019 23.5608 132.288 23.8635 132.49L36.552 139.769C37.1343 140.108 37.5953 139.829 37.5953 139.211Z" fill="#FFC727"/>
</svg>
