<svg width="329" height="311" viewBox="0 0 329 311" fill="none" xmlns="http://www.w3.org/2000/svg">
<path d="M11.6665 217.601L18.5708 283.792" stroke="#263238" stroke-miterlimit="10"/>
<path d="M17.4576 271.122L14.3262 267.813" stroke="#263238" stroke-miterlimit="10"/>
<path d="M15.2681 268.81C15.2622 268.303 15.1484 267.804 14.9343 267.345C14.7201 266.887 14.4107 266.479 14.0265 266.149C13.2214 265.433 8.99153 263.652 8.56854 265.139C8.15919 266.763 12.4914 269.915 15.2681 268.81Z" fill="#3362CC" stroke="#263238" stroke-miterlimit="10"/>
<path d="M15.2752 268.81L11.25 266.299" stroke="#263238" stroke-width="0.5" stroke-miterlimit="10"/>
<path d="M18.2423 278.647L15.1108 275.345" stroke="#263238" stroke-miterlimit="10"/>
<path d="M16.06 276.335C16.0562 275.829 15.9433 275.33 15.729 274.872C15.5147 274.414 15.2041 274.008 14.8183 273.681C14.0133 272.958 9.78342 271.177 9.36043 272.671C8.94426 274.288 13.2765 277.474 16.06 276.335Z" fill="#3362CC" stroke="#263238" stroke-miterlimit="10"/>
<path d="M16.0599 276.335L12.0347 273.824" stroke="#263238" stroke-width="0.5" stroke-miterlimit="10"/>
<path d="M15.5411 252.757L12.4097 249.448" stroke="#263238" stroke-miterlimit="10"/>
<path d="M13.3574 250.437C13.3509 249.932 13.2368 249.434 13.0227 248.976C12.8086 248.518 12.4994 248.112 12.1157 247.783C11.3107 247.06 7.08078 245.286 6.65779 246.773C6.24163 248.39 10.5738 251.576 13.3574 250.437Z" fill="#3362CC" stroke="#263238" stroke-miterlimit="10"/>
<path d="M13.3582 250.437L9.33301 247.926" stroke="#263238" stroke-width="0.5" stroke-miterlimit="10"/>
<path d="M16.3253 260.282L13.1938 256.973" stroke="#263238" stroke-miterlimit="10"/>
<path d="M14.1425 257.962C14.1383 257.456 14.0252 256.958 13.8109 256.5C13.5967 256.042 13.2863 255.635 12.9009 255.308C12.0958 254.626 7.86594 252.811 7.44295 254.298C7.02678 255.922 11.359 259.101 14.1425 257.962Z" fill="#3362CC" stroke="#263238" stroke-miterlimit="10"/>
<path d="M14.1424 257.962L10.1172 255.458" stroke="#263238" stroke-width="0.5" stroke-miterlimit="10"/>
<path d="M14.2658 240.524L11.1343 237.215" stroke="#263238" stroke-miterlimit="10"/>
<path d="M12.082 238.211C12.0761 237.705 11.9623 237.206 11.7482 236.747C11.5341 236.288 11.2246 235.88 10.8404 235.551C10.0353 234.834 5.80543 233.054 5.38244 234.548C4.96628 236.165 9.29167 239.351 12.082 238.211Z" fill="#3362CC" stroke="#263238" stroke-miterlimit="10"/>
<path d="M12.0823 238.211L8.05713 235.701" stroke="#263238" stroke-width="0.5" stroke-miterlimit="10"/>
<path d="M12.983 228.244L9.85156 224.935" stroke="#263238" stroke-miterlimit="10"/>
<path d="M10.7995 225.924C10.7931 225.419 10.679 224.921 10.4649 224.463C10.2507 224.006 9.94154 223.599 9.55784 223.27C8.7528 222.554 4.52292 220.773 4.09993 222.26C3.67012 223.884 8.01598 227.063 10.7995 225.924Z" fill="#3362CC" stroke="#263238" stroke-miterlimit="10"/>
<path d="M10.8001 225.924L6.7749 223.42" stroke="#263238" stroke-width="0.5" stroke-miterlimit="10"/>
<path d="M16.9326 266.667L19.3136 262.785" stroke="#263238" stroke-miterlimit="10"/>
<path d="M18.5838 263.952C18.4867 263.455 18.4973 262.942 18.615 262.449C18.7327 261.956 18.9547 261.494 19.266 261.094C19.9005 260.227 23.6733 257.614 24.376 258.985C25.1265 260.48 21.5515 264.491 18.5838 263.952Z" fill="#3362CC" stroke="#263238" stroke-miterlimit="10"/>
<path d="M18.5835 263.952L22.213 260.486" stroke="#263238" stroke-width="0.5" stroke-miterlimit="10"/>
<path d="M14.8657 246.862L17.2467 242.973" stroke="#263238" stroke-miterlimit="10"/>
<path d="M16.5168 244.14C16.4198 243.643 16.4305 243.132 16.5482 242.64C16.6659 242.148 16.8878 241.687 17.199 241.288C17.8335 240.415 21.6063 237.802 22.309 239.18C23.0594 240.674 19.4845 244.672 16.5168 244.14Z" fill="#3362CC" stroke="#263238" stroke-miterlimit="10"/>
<path d="M16.5166 244.14L20.1461 240.674" stroke="#263238" stroke-width="0.5" stroke-miterlimit="10"/>
<path d="M13.9517 238.157L16.3395 234.268" stroke="#263238" stroke-miterlimit="10"/>
<path d="M15.6091 235.435C15.5125 234.938 15.5234 234.427 15.6411 233.935C15.7588 233.443 15.9805 232.982 16.2913 232.583C16.9326 231.709 20.7054 229.097 21.4013 230.475C22.1517 231.969 18.57 235.973 15.6091 235.435Z" fill="#3362CC" stroke="#263238" stroke-miterlimit="10"/>
<path d="M15.6089 235.434L19.2384 231.969" stroke="#263238" stroke-width="0.5" stroke-miterlimit="10"/>
<path d="M12.6211 225.392L15.0021 221.51" stroke="#263238" stroke-miterlimit="10"/>
<path d="M14.2787 222.677C14.1824 222.179 14.1935 221.667 14.3112 221.174C14.4288 220.681 14.6503 220.219 14.9609 219.818C15.6022 218.952 19.375 216.332 20.0709 217.71C20.8213 219.204 17.2396 223.216 14.2787 222.677Z" fill="#3362CC" stroke="#263238" stroke-miterlimit="10"/>
<path d="M14.2793 222.677L17.902 219.211" stroke="#263238" stroke-width="0.5" stroke-miterlimit="10"/>
<path d="M11.6043 217.232C11.5081 216.735 11.5192 216.222 11.6368 215.73C11.7545 215.237 11.976 214.774 12.2866 214.374C12.9279 213.507 16.7007 210.894 17.3966 212.266C18.147 213.76 14.5857 217.771 11.6043 217.232Z" fill="#3362CC" stroke="#263238" stroke-miterlimit="10"/>
<path d="M11.6045 217.232L15.234 213.766" stroke="#263238" stroke-width="0.5" stroke-miterlimit="10"/>
<path d="M11.8159 217.382C11.3118 217.428 10.8038 217.365 10.3261 217.198C9.84832 217.031 9.41185 216.763 9.04598 216.414C8.24776 215.69 6.04413 211.638 7.48365 211.113C9.0528 210.512 12.6618 214.49 11.8159 217.382Z" fill="#3362CC" stroke="#263238" stroke-miterlimit="10"/>
<path d="M11.8157 217.383L8.74561 213.412" stroke="#263238" stroke-width="0.5" stroke-miterlimit="10"/>
<path d="M29.8814 226.715L23.0112 292.913" stroke="#263238" stroke-miterlimit="10"/>
<path d="M24.5329 280.285L22.1519 276.403" stroke="#263238" stroke-miterlimit="10"/>
<path d="M22.8756 277.57C22.9727 277.072 22.9621 276.559 22.8444 276.066C22.7267 275.573 22.5047 275.111 22.1934 274.711C21.5589 273.845 17.7861 271.232 17.0834 272.61C16.3329 274.104 19.9147 278.102 22.8756 277.57Z" fill="#3362CC" stroke="#263238" stroke-miterlimit="10"/>
<path d="M22.875 277.57L19.4502 274.281" stroke="#263238" stroke-width="0.5" stroke-miterlimit="10"/>
<path d="M26.4362 261.912L24.0552 258.03" stroke="#263238" stroke-miterlimit="10"/>
<path d="M24.7785 259.197C24.8751 258.701 24.8641 258.189 24.7464 257.697C24.6288 257.205 24.4071 256.744 24.0963 256.345C23.4549 255.472 19.6958 252.859 18.9999 254.224C18.2358 255.731 21.8176 259.736 24.7785 259.197Z" fill="#3362CC" stroke="#263238" stroke-miterlimit="10"/>
<path d="M24.7784 259.197L21.3604 255.915" stroke="#263238" stroke-width="0.5" stroke-miterlimit="10"/>
<path d="M25.6583 269.444L23.2705 265.562" stroke="#263238" stroke-miterlimit="10"/>
<path d="M24.0006 266.729C24.0977 266.231 24.0871 265.719 23.9694 265.226C23.8517 264.733 23.6297 264.27 23.3184 263.87C22.6839 263.004 18.9111 260.391 18.2084 261.769C17.4579 263.263 21.0397 267.268 24.0006 266.729Z" fill="#3362CC" stroke="#263238" stroke-miterlimit="10"/>
<path d="M24.0005 266.729L20.5757 263.44" stroke="#263238" stroke-width="0.5" stroke-miterlimit="10"/>
<path d="M27.7052 249.686L25.3242 245.804" stroke="#263238" stroke-miterlimit="10"/>
<path d="M26.048 246.971C26.1442 246.473 26.1331 245.961 26.0155 245.468C25.8978 244.975 25.6763 244.513 25.3657 244.112C24.7244 243.246 20.9517 240.633 20.2558 242.011C19.5053 243.505 23.0871 247.51 26.048 246.971Z" fill="#3362CC" stroke="#263238" stroke-miterlimit="10"/>
<path d="M26.0474 246.971L22.6294 243.683" stroke="#263238" stroke-width="0.5" stroke-miterlimit="10"/>
<path d="M28.9811 237.399L26.6001 233.524" stroke="#263238" stroke-miterlimit="10"/>
<path d="M27.3231 234.684C27.4197 234.187 27.4088 233.676 27.2911 233.184C27.1734 232.692 26.9517 232.231 26.6409 231.832C25.9996 230.966 22.2268 228.353 21.5241 229.724C20.7805 231.218 24.3622 235.23 27.3231 234.684Z" fill="#3362CC" stroke="#263238" stroke-miterlimit="10"/>
<path d="M27.3233 234.684L23.8984 231.402" stroke="#263238" stroke-width="0.5" stroke-miterlimit="10"/>
<path d="M24.9351 275.816L28.0665 272.508" stroke="#263238" stroke-miterlimit="10"/>
<path d="M27.1113 273.497C27.1182 272.991 27.2332 272.492 27.4485 272.035C27.6638 271.577 27.9745 271.171 28.3598 270.843C29.158 270.126 33.3879 268.346 33.8177 269.833C34.2271 271.45 29.9017 274.636 27.1113 273.497Z" fill="#3362CC" stroke="#263238" stroke-miterlimit="10"/>
<path d="M27.1113 273.497L31.3753 270.856" stroke="#263238" stroke-width="0.5" stroke-miterlimit="10"/>
<path d="M26.9893 256.004L30.1207 252.695" stroke="#263238" stroke-miterlimit="10"/>
<path d="M29.1655 253.691C29.1719 253.184 29.2866 252.685 29.5019 252.226C29.7172 251.767 30.0282 251.359 30.414 251.03C31.2191 250.314 35.449 248.533 35.8719 250.021C36.2881 251.644 31.9559 254.824 29.1655 253.691Z" fill="#3362CC" stroke="#263238" stroke-miterlimit="10"/>
<path d="M29.1655 253.691L33.4295 251.044" stroke="#263238" stroke-width="0.5" stroke-miterlimit="10"/>
<path d="M27.896 247.298L31.0207 243.99" stroke="#263238" stroke-miterlimit="10"/>
<path d="M30.0728 244.986C30.0787 244.48 30.1925 243.98 30.4066 243.522C30.6207 243.063 30.9302 242.655 31.3144 242.325C32.1195 241.609 36.3494 239.828 36.7723 241.315C37.1885 242.932 32.8631 246.118 30.0728 244.986Z" fill="#3362CC" stroke="#263238" stroke-miterlimit="10"/>
<path d="M30.0728 244.986L34.3367 242.339" stroke="#263238" stroke-width="0.5" stroke-miterlimit="10"/>
<path d="M29.2197 234.541L32.3444 231.225" stroke="#263238" stroke-miterlimit="10"/>
<path d="M31.3965 232.221C31.4024 231.715 31.5162 231.216 31.7303 230.757C31.9445 230.298 32.2539 229.89 32.6382 229.56C33.4432 228.844 37.6731 227.063 38.0961 228.551C38.5122 230.174 34.1868 233.36 31.3965 232.221Z" fill="#3362CC" stroke="#263238" stroke-miterlimit="10"/>
<path d="M31.3965 232.221L35.6605 229.574" stroke="#263238" stroke-width="0.5" stroke-miterlimit="10"/>
<path d="M29.9028 226.34C29.9093 225.835 30.0234 225.337 30.2375 224.879C30.4516 224.422 30.7608 224.015 31.1445 223.686C31.9495 222.97 36.1794 221.182 36.6024 222.677C37.0186 224.293 32.6932 227.48 29.9028 226.34Z" fill="#3362CC" stroke="#263238" stroke-miterlimit="10"/>
<path d="M29.9028 226.34L34.1668 223.7" stroke="#263238" stroke-width="0.5" stroke-miterlimit="10"/>
<path d="M30.0727 226.531C29.5679 226.475 29.0812 226.31 28.6457 226.049C28.2101 225.787 27.8359 225.435 27.5484 225.017C26.9207 224.143 25.5903 219.75 27.1117 219.504C28.7832 219.238 31.4985 223.877 30.0727 226.531Z" fill="#3362CC" stroke="#263238" stroke-miterlimit="10"/>
<path d="M30.0723 226.531L27.8892 222.015" stroke="#263238" stroke-width="0.5" stroke-miterlimit="10"/>
<path d="M22.0083 199.76V283.471" stroke="#263238" stroke-miterlimit="10"/>
<path d="M22.077 270.884L19.3071 267.268" stroke="#263238" stroke-miterlimit="10"/>
<path d="M20.146 268.352C20.1937 267.849 20.1324 267.341 19.9665 266.863C19.8005 266.385 19.5336 265.948 19.184 265.583C18.4608 264.784 14.4083 262.574 13.883 264.013C13.2827 265.583 17.2601 269.192 20.146 268.352Z" fill="#3362CC" stroke="#263238" stroke-miterlimit="10"/>
<path d="M20.1464 268.353L16.4077 265.439" stroke="#263238" stroke-width="0.5" stroke-miterlimit="10"/>
<path d="M22.077 255.151L19.3071 251.535" stroke="#263238" stroke-miterlimit="10"/>
<path d="M20.146 252.62C20.1937 252.117 20.1324 251.608 19.9665 251.131C19.8005 250.653 19.5336 250.216 19.184 249.85C18.4608 249.052 14.4083 246.842 13.883 248.281C13.2827 249.85 17.2601 253.466 20.146 252.62Z" fill="#3362CC" stroke="#263238" stroke-miterlimit="10"/>
<path d="M20.1464 252.62L16.4077 249.707" stroke="#263238" stroke-width="0.5" stroke-miterlimit="10"/>
<path d="M22.077 236.683L19.3071 233.067" stroke="#263238" stroke-miterlimit="10"/>
<path d="M20.146 234.152C20.1937 233.648 20.1324 233.14 19.9665 232.662C19.8005 232.184 19.5336 231.748 19.184 231.382C18.4608 230.584 14.4083 228.373 13.883 229.813C13.2827 231.382 17.2601 234.998 20.146 234.152Z" fill="#3362CC" stroke="#263238" stroke-miterlimit="10"/>
<path d="M20.1464 234.152L16.4077 231.239" stroke="#263238" stroke-width="0.5" stroke-miterlimit="10"/>
<path d="M22.077 224.389L19.3071 220.773" stroke="#263238" stroke-miterlimit="10"/>
<path d="M20.146 221.858C20.1937 221.354 20.1324 220.846 19.9665 220.368C19.8005 219.89 19.5336 219.454 19.184 219.088C18.4608 218.29 14.4083 216.079 13.883 217.519C13.2827 219.088 17.2601 222.697 20.146 221.858Z" fill="#3362CC" stroke="#263238" stroke-miterlimit="10"/>
<path d="M20.1464 221.858L16.4077 218.945" stroke="#263238" stroke-width="0.5" stroke-miterlimit="10"/>
<path d="M22.077 212.041L19.3071 208.425" stroke="#263238" stroke-miterlimit="10"/>
<path d="M20.146 209.509C20.1937 209.006 20.1324 208.498 19.9665 208.02C19.8005 207.542 19.5336 207.105 19.184 206.74C18.4608 205.941 14.4083 203.731 13.883 205.17C13.2827 206.74 17.2601 210.349 20.146 209.509Z" fill="#3362CC" stroke="#263238" stroke-miterlimit="10"/>
<path d="M20.1464 209.509L16.4077 206.596" stroke="#263238" stroke-width="0.5" stroke-miterlimit="10"/>
<path d="M22.0151 275.687L24.785 272.071" stroke="#263238" stroke-miterlimit="10"/>
<path d="M23.9459 273.155C23.8982 272.652 23.9594 272.144 24.1254 271.666C24.2914 271.188 24.5582 270.751 24.9078 270.386C25.631 269.587 29.6835 267.377 30.2088 268.816C30.8092 270.386 26.8659 274.008 23.9459 273.155Z" fill="#3362CC" stroke="#263238" stroke-miterlimit="10"/>
<path d="M23.9463 273.156L27.9101 270.085" stroke="#263238" stroke-width="0.5" stroke-miterlimit="10"/>
<path d="M22.0151 250.669L24.785 247.053" stroke="#263238" stroke-miterlimit="10"/>
<path d="M23.9466 248.138C23.8969 247.632 23.9571 247.121 24.1231 246.641C24.2892 246.16 24.5571 245.722 24.9085 245.354C25.6317 244.556 29.6842 242.346 30.2095 243.785C30.8099 245.354 26.8666 248.977 23.9466 248.138Z" fill="#3362CC" stroke="#263238" stroke-miterlimit="10"/>
<path d="M23.9463 248.138L27.9101 245.068" stroke="#263238" stroke-width="0.5" stroke-miterlimit="10"/>
<path d="M22.0151 238.32L24.785 234.704" stroke="#263238" stroke-miterlimit="10"/>
<path d="M23.9459 235.803C23.8982 235.299 23.9594 234.791 24.1254 234.313C24.2914 233.835 24.5582 233.399 24.9078 233.033C25.631 232.235 29.6835 230.024 30.2088 231.464C30.8092 233.019 26.8659 236.628 23.9459 235.803Z" fill="#3362CC" stroke="#263238" stroke-miterlimit="10"/>
<path d="M23.9463 235.789L27.9101 232.719" stroke="#263238" stroke-width="0.5" stroke-miterlimit="10"/>
<path d="M22.0151 221.994L24.785 218.379" stroke="#263238" stroke-miterlimit="10"/>
<path d="M23.9463 219.463C23.8996 218.961 23.9613 218.454 24.1273 217.977C24.2932 217.501 24.5595 217.065 24.9082 216.7C25.6314 215.902 29.6839 213.691 30.2092 215.138C30.8096 216.7 26.8663 220.309 23.9463 219.463Z" fill="#3362CC" stroke="#263238" stroke-miterlimit="10"/>
<path d="M23.9463 219.463L27.9101 216.393" stroke="#263238" stroke-width="0.5" stroke-miterlimit="10"/>
<path d="M22.0151 209.162L24.785 205.553" stroke="#263238" stroke-miterlimit="10"/>
<path d="M23.9459 206.637C23.8982 206.132 23.9593 205.623 24.1253 205.144C24.2912 204.665 24.5581 204.227 24.9079 203.86C25.6311 203.062 29.6836 200.859 30.2089 202.298C30.8093 203.86 26.8659 207.476 23.9459 206.637Z" fill="#3362CC" stroke="#263238" stroke-miterlimit="10"/>
<path d="M23.9463 206.637L27.9101 203.56" stroke="#263238" stroke-width="0.5" stroke-miterlimit="10"/>
<path d="M21.8516 200.941C21.804 200.437 21.8652 199.929 22.0312 199.451C22.1971 198.973 22.464 198.536 22.8136 198.171C23.5368 197.372 27.5893 195.162 28.1146 196.608C28.715 198.171 24.7443 201.786 21.8516 200.941Z" fill="#3362CC" stroke="#263238" stroke-miterlimit="10"/>
<path d="M21.8521 200.941L25.8159 197.87" stroke="#263238" stroke-width="0.5" stroke-miterlimit="10"/>
<path d="M22.0426 201.111C21.5322 201.108 21.0284 200.995 20.5657 200.779C20.1029 200.564 19.6922 200.251 19.3614 199.863C18.6791 199.057 16.8712 194.828 18.3585 194.405C20.0436 193.995 23.1887 198.327 22.0426 201.111Z" fill="#3362CC" stroke="#263238" stroke-miterlimit="10"/>
<path d="M22.0426 201.111L19.4023 196.847" stroke="#263238" stroke-width="0.5" stroke-miterlimit="10"/>
<path d="M25.4538 305.18H16.5915L15.4795 282.789H26.5591L25.4538 305.18Z" fill="#263238" stroke="#263238" stroke-miterlimit="10"/>
<g opacity="0.3">
<path opacity="0.3" d="M203.82 15.0781H182.077V23.9131H203.82V15.0781Z" stroke="white" stroke-linejoin="round"/>
<path opacity="0.3" d="M232.35 15.0781H210.607V23.9131H232.35V15.0781Z" stroke="white" stroke-linejoin="round"/>
<path opacity="0.3" d="M217.41 30.026H195.667V38.861H217.41V30.026Z" stroke="white" stroke-linejoin="round"/>
<path opacity="0.3" d="M203.82 137.008H182.077V145.843H203.82V137.008Z" stroke="white" stroke-linejoin="round"/>
<path opacity="0.3" d="M232.35 137.008H210.607V145.843H232.35V137.008Z" stroke="white" stroke-linejoin="round"/>
<path opacity="0.3" d="M217.41 151.949H195.667V160.784H217.41V151.949Z" stroke="white" stroke-linejoin="round"/>
<path opacity="0.3" d="M269.717 30.7084H247.974V39.5434H269.717V30.7084Z" stroke="white" stroke-linejoin="round"/>
<path opacity="0.3" d="M298.255 30.7084H276.512V39.5434H298.255V30.7084Z" stroke="white" stroke-linejoin="round"/>
<path opacity="0.3" d="M283.307 45.6561H261.564V54.4911H283.307V45.6561Z" stroke="white" stroke-linejoin="round"/>
<path opacity="0.3" d="M269.717 112.236H247.974V121.071H269.717V112.236Z" stroke="white" stroke-linejoin="round"/>
<path opacity="0.3" d="M298.255 112.236H276.512V121.071H298.255V112.236Z" stroke="white" stroke-linejoin="round"/>
<path opacity="0.3" d="M283.307 127.177H261.564V136.012H283.307V127.177Z" stroke="white" stroke-linejoin="round"/>
<path opacity="0.3" d="M76.7732 61.9615H55.0303V70.7965H76.7732V61.9615Z" stroke="white" stroke-linejoin="round"/>
<path opacity="0.3" d="M105.311 61.9615H83.5684V70.7965H105.311V61.9615Z" stroke="white" stroke-linejoin="round"/>
<path opacity="0.3" d="M90.3631 76.9028H68.6201V85.7378H90.3631V76.9028Z" stroke="white" stroke-linejoin="round"/>
<path opacity="0.3" d="M128.405 19.1578H106.662V27.9928H128.405V19.1578Z" stroke="white" stroke-linejoin="round"/>
<path opacity="0.3" d="M113.464 34.1057H91.7207V42.9407H113.464V34.1057Z" stroke="white" stroke-linejoin="round"/>
<path opacity="0.3" d="M271.075 234.52H249.332V243.355H271.075V234.52Z" stroke="white" stroke-linejoin="round"/>
<path opacity="0.3" d="M256.133 249.468H234.39V258.303H256.133V249.468Z" stroke="white" stroke-linejoin="round"/>
<path opacity="0.3" d="M220.801 72.8297H199.058V81.6647H220.801V72.8297Z" stroke="white" stroke-linejoin="round"/>
<path opacity="0.3" d="M35.3338 92.533H13.5908V101.368H35.3338V92.533Z" stroke="white" stroke-linejoin="round"/>
<path opacity="0.3" d="M126.372 234.52H104.629V243.355H126.372V234.52Z" stroke="white" stroke-linejoin="round"/>
<path opacity="0.3" d="M111.424 249.468H89.6812V258.303H111.424V249.468Z" stroke="white" stroke-linejoin="round"/>
<path opacity="0.3" d="M144.71 61.9615H122.967V70.7965H144.71V61.9615Z" stroke="white" stroke-linejoin="round"/>
<path opacity="0.3" d="M173.249 61.9615H151.506V70.7965H173.249V61.9615Z" stroke="white" stroke-linejoin="round"/>
<path opacity="0.3" d="M158.301 76.9028H136.558V85.7378H158.301V76.9028Z" stroke="white" stroke-linejoin="round"/>
<path opacity="0.3" d="M298.255 146.205H276.512V155.04H298.255V146.205Z" stroke="white" stroke-linejoin="round"/>
<path opacity="0.3" d="M326.787 146.205H305.044V155.04H326.787V146.205Z" stroke="white" stroke-linejoin="round"/>
<path opacity="0.3" d="M311.838 161.146H290.095V169.98H311.838V161.146Z" stroke="white" stroke-linejoin="round"/>
<path opacity="0.3" d="M38.7312 199.876H16.9883V208.711H38.7312V199.876Z" stroke="white" stroke-linejoin="round"/>
<path opacity="0.3" d="M67.263 199.876H45.52V208.711H67.263V199.876Z" stroke="white" stroke-linejoin="round"/>
<path opacity="0.3" d="M52.3147 214.817H30.5718V223.652H52.3147V214.817Z" stroke="white" stroke-linejoin="round"/>
</g>
<path d="M265.793 227.357C265.793 227.357 269.43 238.041 269.887 246.91C270.344 255.779 273.073 286.712 273.073 286.712C273.073 286.712 267.158 296.263 263.972 298.078C260.786 299.893 254.489 301.789 257.15 304.45C258.514 305.814 277.323 304.887 282.652 304.539C283.025 304.516 283.375 304.35 283.629 304.075C283.884 303.801 284.022 303.439 284.016 303.065C284.016 302.055 284.016 300.684 284.016 299.654C284.016 297.832 284.241 292.374 284.241 291.692C284.241 291.01 281.287 286.009 281.287 286.009C281.287 286.009 288.11 259.852 288.56 250.983C289.01 242.114 286.288 238.02 286.288 236.656C286.288 235.291 286.063 226.197 286.063 226.197L265.793 227.357Z" fill="#A47979" stroke="#263238" stroke-linejoin="round"/>
<path d="M284.016 303.065C284.016 302.055 284.016 300.684 284.016 299.654C284.016 298.46 284.112 295.717 284.18 293.773C283.791 293.821 283.368 293.882 282.925 293.95C280.237 294.353 272.432 298.726 267.383 301.455C263.727 303.399 258.917 303.249 256.549 303.017C256.535 303.289 256.584 303.559 256.693 303.808C256.802 304.057 256.968 304.277 257.177 304.45C258.541 305.814 277.351 304.887 282.679 304.539C283.048 304.509 283.391 304.34 283.639 304.067C283.888 303.793 284.023 303.435 284.016 303.065Z" fill="#A47979" stroke="#263238" stroke-linejoin="round"/>
<path d="M282.529 288.247C278.278 291.412 269.962 297.443 267.274 298.283C265.99 298.767 264.584 298.829 263.262 298.46C260.199 300.043 255.451 301.707 256.727 303.918C259.551 304 264.913 303.918 268.659 302.437C273.946 300.322 277.201 298.044 280.939 296.495C281.956 296.064 283.002 295.708 284.071 295.431C284.132 293.691 284.193 292.067 284.193 291.713C284.193 291.358 283.334 289.7 282.529 288.247Z" fill="#263238" stroke="#263238" stroke-linejoin="round"/>
<path d="M278.531 227.357C278.531 227.357 282.168 238.041 282.625 246.91C283.082 255.779 285.804 286.712 285.804 286.712C285.804 286.712 279.896 296.263 276.71 298.078C273.524 299.893 267.227 301.789 269.887 304.45C271.252 305.814 290.054 304.887 295.389 304.539C295.763 304.518 296.115 304.352 296.369 304.077C296.624 303.802 296.762 303.44 296.754 303.065C296.754 302.055 296.754 300.684 296.754 299.654C296.754 297.832 296.986 292.374 296.986 291.692C296.986 291.01 294.025 286.009 294.025 286.009C294.025 286.009 300.847 259.852 301.304 250.983C301.762 242.114 299.033 238.02 299.033 236.656C299.033 235.291 298.801 226.197 298.801 226.197L278.531 227.357Z" fill="#A47979" stroke="#263238" stroke-linejoin="round"/>
<path d="M296.747 303.065C296.747 302.055 296.747 300.684 296.747 299.654C296.747 298.46 296.842 295.717 296.911 293.773C296.522 293.821 296.106 293.882 295.662 293.95C292.974 294.353 285.162 298.726 280.121 301.455C276.464 303.399 271.654 303.249 269.287 303.017C269.271 303.289 269.319 303.56 269.428 303.809C269.537 304.058 269.704 304.278 269.914 304.45C271.279 305.814 290.081 304.887 295.416 304.539C295.784 304.509 296.127 304.34 296.374 304.066C296.622 303.792 296.755 303.434 296.747 303.065Z" fill="#A47979" stroke="#263238" stroke-linejoin="round"/>
<path d="M295.267 288.247C291.017 291.412 282.693 297.443 280.012 298.283C278.728 298.767 277.323 298.829 276.001 298.46C272.937 300.043 268.189 301.707 269.465 303.918C272.282 304 277.652 303.918 281.397 302.437C286.685 300.322 289.939 298.044 293.677 296.495C294.701 296.066 295.754 295.712 296.829 295.438C296.891 293.698 296.952 292.074 296.952 291.719C296.952 291.365 296.065 289.7 295.267 288.247Z" fill="#263238" stroke="#263238" stroke-linejoin="round"/>
<path d="M286.118 62.6849C286.118 62.6849 291.153 70.6671 294.796 71.9292C298.439 73.1914 309.075 73.0481 312.575 76.125C316.075 79.2019 314.396 89.2854 311.893 94.3271C309.389 99.3689 314.976 98.8094 318.333 101.47C321.69 104.131 320.857 111.022 317.774 114.344C314.69 117.667 307.274 120.225 307.274 120.225C307.274 120.225 305.875 113.505 301.816 110.987C297.757 108.47 290.614 105.386 289.495 99.9283C288.376 94.4704 283.757 84.3869 283.757 84.3869C283.757 84.3869 289.215 82.2856 288.935 76.2683C288.656 70.2509 283.757 64.7862 283.477 63.524C283.198 62.2619 284.262 61.7024 286.118 62.6849Z" fill="#263238" stroke="#263238" stroke-linejoin="round"/>
<path d="M248.739 166.522C248.739 166.522 238.334 165.669 237.482 165.669C236.629 165.669 232.706 170.274 232.365 171.127C232.024 171.98 232.535 174.709 232.535 174.709L250.444 169.592L248.739 166.522Z" fill="#A47979" stroke="#263238" stroke-linejoin="round"/>
<path d="M239.821 161.023L239.043 172.662H240.067L241.042 161.111C241.054 160.96 241.008 160.809 240.913 160.69C240.818 160.571 240.681 160.492 240.531 160.47C240.447 160.454 240.361 160.457 240.279 160.477C240.196 160.497 240.119 160.534 240.051 160.587C239.984 160.639 239.929 160.705 239.89 160.78C239.85 160.855 239.827 160.938 239.821 161.023Z" fill="#263238" stroke="#263238" stroke-linejoin="round"/>
<path d="M264.259 153.73L248.738 166.522L250.443 169.592L262.894 164.475L264.259 153.73Z" fill="#3362CC" stroke="#263238" stroke-linejoin="round"/>
<path d="M257.75 176.83C257.75 176.83 256.993 205.744 256.993 211.038C256.993 216.332 257.935 226.934 257.935 226.934C257.935 226.934 261.721 229.206 277.781 229.956C293.841 230.707 304.245 227.125 304.245 227.125C304.245 227.125 307.834 197.639 308.216 191.212C308.598 184.785 308.4 178.741 308.4 178.741L257.75 176.83Z" fill="#37474F" stroke="#263238" stroke-linejoin="round"/>
<path d="M279.78 103.585C279.78 103.585 269.546 106.826 268.523 109.384C267.5 111.943 265.453 122.517 265.453 122.517C265.453 122.517 262.895 132.921 263.065 134.798C263.236 136.674 265.965 141.279 265.965 141.79C265.965 142.302 256.243 180.337 256.243 180.337C256.243 180.337 263.065 184.43 278.586 185.113C294.107 185.795 310.31 181.19 310.31 181.19C310.31 181.19 307.922 162.258 306.217 158.505C304.511 154.753 302.805 143.667 302.805 143.667C302.805 143.667 311.163 114.671 308.775 109.555C306.387 104.438 291.719 99.8328 291.719 99.8328L279.78 103.585Z" fill="#C9D9FF" stroke="#263238" stroke-linejoin="round"/>
<path d="M297.749 102.084C294.447 100.72 291.719 99.8395 291.719 99.8395L279.779 103.592C279.779 103.592 276.866 104.513 273.987 105.768C273.537 108.156 272.343 115.319 273.469 118.942C274.833 123.377 275.686 127.641 275.686 127.641C275.686 127.641 284.555 118.942 289.672 115.019C293.39 112.161 296.385 105.802 297.749 102.084Z" fill="#263238" stroke="#263238" stroke-linejoin="round"/>
<path d="M259.777 83.6636C259.777 83.6636 261.36 88.8964 262.581 89.872C263.802 90.8476 264.286 91.2365 264.286 91.2365C264.286 91.2365 263.918 98.0589 265.255 98.5433C265.683 98.6739 266.133 98.7086 266.576 98.6449C267.018 98.5812 267.441 98.4207 267.814 98.1749C267.814 98.1749 274.268 105.113 275.12 105.482C275.973 105.85 278.402 103.899 278.402 103.899C278.402 103.899 275.728 112.904 275.728 119.72C275.728 126.536 275.359 128.364 276.458 126.297C277.556 124.23 289.236 107.672 290.942 104.506C291.787 103.022 292.519 101.475 293.132 99.8805C293.132 99.8805 289.12 92.8193 288.629 91.1137C288.138 89.4081 287.414 85.7104 287.414 85.7104C287.414 85.7104 287.292 86.5632 280.108 83.036C276.172 81.1076 272.352 78.9527 268.666 76.582C266.715 75.4768 259.777 83.6636 259.777 83.6636Z" fill="#A47979" stroke="#263238" stroke-linejoin="round"/>
<path d="M265.739 87.5933C265.739 87.5933 266.142 86.0378 269.417 85.5466" stroke="#263238" stroke-linejoin="round"/>
<path d="M268.059 89.6263L268.789 91.4547C268.789 91.4547 270.611 90.9635 271.102 89.9947" stroke="#263238" stroke-linejoin="round"/>
<path d="M270.372 98.8775C270.372 98.8775 273.169 98.0247 273.169 95.7119" stroke="#263238" stroke-linejoin="round"/>
<path d="M285.709 87.4365C285.709 87.4365 287.292 89.2649 286.439 90.8477C286.27 91.2717 285.96 91.6242 285.56 91.8455C285.161 92.0668 284.698 92.1433 284.249 92.0621C284.805 93.3731 284.892 94.8358 284.494 96.2033C283.758 98.1477 279.985 101.313 279.985 101.313" stroke="#263238" stroke-linejoin="round"/>
<path d="M265.016 89.9947C265.016 89.9947 266.38 93.1603 267.452 93.2831C268.523 93.4059 272.439 90.9635 273.046 89.7491C273.653 88.5347 271.586 86.0991 270.494 86.0991C269.403 86.0991 265.65 89.1214 265.65 89.1214C265.65 89.1214 264.77 89.2647 265.016 89.9947Z" stroke="#263238" stroke-linejoin="round"/>
<path d="M265.017 89.9949L263.673 90.6021" stroke="#263238" stroke-linejoin="round"/>
<path d="M262.921 90.3563C262.921 90.3563 260.37 91.2091 260.609 92.3075C260.847 93.4059 264.02 95.1047 264.02 95.1047" stroke="#263238" stroke-linejoin="round"/>
<path d="M270.979 85.9765L272.685 85.0009" stroke="#263238" stroke-linejoin="round"/>
<path d="M278.402 103.872C278.402 103.872 279.501 108.75 278.662 112.809" stroke="#263238" stroke-linejoin="round"/>
<path d="M291.037 123.711L286.118 152.195L253.514 166.215L255.56 173.719L298.398 163.281C298.398 163.281 300.957 162.599 301.639 159.188C301.789 158.444 309.996 118.083 310.337 115.524C310.472 113.763 309.982 112.011 308.953 110.576C307.923 109.141 306.42 108.115 304.709 107.678" fill="#C9D9FF"/>
<path d="M291.037 123.711L286.118 152.195L253.514 166.215L255.56 173.719L298.398 163.281C298.398 163.281 300.957 162.599 301.639 159.188C301.789 158.444 309.996 118.083 310.337 115.524C310.472 113.763 309.982 112.011 308.953 110.576C307.923 109.141 306.42 108.115 304.709 107.678" stroke="#263238" stroke-linejoin="round"/>
<path d="M253.514 166.215L243.621 169.967C243.621 169.967 234.411 172.184 233.899 172.696C233.388 173.208 228.612 176.107 227.759 176.619C226.906 177.131 225.542 178.666 229.124 178.154C231.672 177.735 234.182 177.108 236.628 176.278C236.628 176.278 241.745 176.789 243.451 176.619C245.156 176.448 248.595 173.719 248.595 173.719L255.246 171.502L253.514 166.215Z" fill="#A47979" stroke="#263238" stroke-linejoin="round"/>
<path d="M258.91 67.9722C258.91 67.9722 249.421 78.4923 250.642 81.767C251.863 85.0418 258.576 85.2192 259.784 84.7007C260.991 84.1822 266.688 79.1813 266.688 79.1813C266.688 79.1813 269.274 83.6705 273.592 85.5671C276.094 86.6933 278.786 87.3368 281.527 87.4637L286.534 87.2932C286.534 87.2932 294.639 85.3897 293.432 77.9738C292.224 70.5578 288.26 62.7871 282.734 60.0309C277.208 57.2747 265.815 59.683 258.91 67.9722Z" fill="#263238" stroke="#263238" stroke-linejoin="round"/>
<path d="M260.589 82.2991C260.589 82.2991 259.504 78.5059 261.4 77.694C263.297 76.8821 265.494 77.9601 265.494 77.9601" stroke="#707070" stroke-linejoin="round"/>
<path d="M311.517 102.882C314.498 103.148 316.395 106.676 315.611 108.572" stroke="#707070" stroke-linejoin="round"/>
<path d="M309.144 89.374C307.745 91.8028 305.828 94.1497 305.828 95.8348C305.869 96.9466 306.145 98.0371 306.636 99.0353C307.127 100.033 307.824 100.917 308.68 101.627" stroke="#707070" stroke-linejoin="round"/>
<path d="M276.621 82.6542C278.804 83.2784 281.095 83.4319 283.341 83.1045C291.201 82.0197 306.101 79.011 309.621 82.8316C310.938 84.2506 310.74 85.9767 309.976 87.7437" stroke="#707070" stroke-linejoin="round"/>
<path d="M271.15 79.5704C272.127 80.5059 273.255 81.2694 274.486 81.8286" stroke="#707070" stroke-linejoin="round"/>
<path d="M309.806 77.96C310.522 78.4486 311.121 79.0911 311.558 79.8406C311.994 80.5901 312.258 81.4277 312.33 82.2922" stroke="#707070" stroke-linejoin="round"/>
<path d="M266.278 71.9973C266.278 71.9973 268.714 70.6328 273.319 74.16C277.924 77.6872 288.219 79.8499 297.429 77.4143C301.748 76.2681 305.173 76.1999 307.663 76.9504" stroke="#707070" stroke-linejoin="round"/>
<path d="M290.662 87.7094C290.662 87.7094 301.223 87.1704 300.957 93.6722C300.691 100.174 302.321 101.252 304.204 101.798" stroke="#707070" stroke-linejoin="round"/>
<path d="M128.098 166.849L114.719 174.879L101.954 178.788L101.34 180.848H121.105L129.544 176.318L128.098 166.849Z" fill="#263238" stroke="#263238" stroke-linejoin="round"/>
<path d="M129.127 185.372C129.127 185.372 129.127 207.606 130.158 219.136C130.921 226.628 132.509 234.014 134.892 241.158C134.892 241.158 141.271 268.537 142.718 274.301C144.164 280.066 144.655 289.406 144.655 289.406C144.655 289.406 143.898 294.059 142.254 295.294C140.61 296.529 133.043 301.68 133.453 302.71C133.862 303.74 152.187 302.71 152.187 302.71C152.187 302.71 156.506 303.119 155.68 297.559C154.855 291.999 153.006 277.774 153.006 267.923C153.006 258.071 147.657 237.849 147.657 237.849C147.657 237.849 153.21 220.793 156.096 209.236C158.982 197.679 158.361 192.18 158.361 192.18L158.157 188.885L129.127 185.372Z" fill="white" stroke="#263238" stroke-linejoin="round"/>
<path d="M155.68 297.559C155.169 294.107 154.261 287.325 153.634 280.292C148.367 283.02 145.447 282.215 143.857 280.899C144.423 285.326 144.642 289.406 144.642 289.406C144.642 289.406 143.884 294.059 142.24 295.294C140.596 296.529 133.03 301.68 133.439 302.71C133.849 303.74 152.174 302.71 152.174 302.71C152.174 302.71 156.492 303.119 155.68 297.559Z" fill="#6C6060" stroke="#263238" stroke-linejoin="round"/>
<path d="M154.275 298.971C154.091 297.75 153.859 296.099 153.593 294.196C151.116 294.162 149.172 294.087 149.172 294.087C149.172 294.087 148.408 291.289 145.611 291.037C142.813 290.785 142.561 294.087 142.561 294.087H142.39C142.113 295.09 141.574 296.001 140.828 296.727C139.177 297.962 131.618 303.113 132.027 304.143C132.437 305.173 150.762 304.143 150.762 304.143C150.762 304.143 155.128 304.532 154.275 298.971Z" fill="white" stroke="#263238" stroke-linejoin="round"/>
<path d="M138.965 218.576C138.965 218.576 135.281 191.901 138.685 190.761C142.09 189.622 147.48 189.629 146.913 197.584C146.347 205.539 138.965 218.576 138.965 218.576Z" fill="#DDE7FF" stroke="#263238" stroke-linejoin="round"/>
<path d="M145.393 192.371C145.393 192.371 137.772 215.219 135.514 229.424C133.256 243.628 145.884 273.701 147.241 277.392C150.127 285.21 151.976 292.21 151.976 292.21C151.976 292.21 148.893 296.304 146.007 298.589C143.121 300.875 138.393 302.505 138.802 304.354C139.212 306.203 157.536 304.354 157.536 304.354C157.536 304.354 163.506 301.475 165.566 300.029C167.627 298.582 163.52 291.385 163.097 290.354C162.674 289.324 161.65 287.066 161.65 287.066C161.65 287.066 161.862 258.037 160.211 251.863C158.56 245.688 155.681 236.853 155.681 236.853C155.681 236.853 176.271 219.149 181.006 204.536C185.74 189.922 184.089 186.211 184.089 186.211L144.983 190.741L145.393 192.371Z" fill="white" stroke="#263238" stroke-linejoin="round"/>
<path d="M145.393 192.371C145.393 192.371 137.772 215.22 135.514 229.424C135.514 229.574 135.473 229.731 135.453 229.881C140.549 223.059 152.836 205.764 152.836 198.191C152.771 195.208 151.591 192.357 149.527 190.202L144.984 190.727L145.393 192.371Z" fill="#DDE7FF" stroke="#263238" stroke-linejoin="round"/>
<path d="M160.211 251.863C159.986 251.003 159.726 250.089 159.46 249.134C154.842 254.291 141.954 263.092 148.306 264.593C152.836 265.658 158.144 266.879 161.493 268.257C161.268 261.318 160.913 254.503 160.211 251.863Z" fill="#DDE7FF" stroke="#263238" stroke-linejoin="round"/>
<path d="M161.582 273.708C158.9 275.188 155.721 277.221 156.929 283.259C157.331 285.306 159.112 286.09 161.657 286.118C161.664 284.098 161.67 279.22 161.582 273.708Z" fill="#DDE7FF" stroke="#263238" stroke-linejoin="round"/>
<path d="M147.657 237.849C147.138 241.315 153.797 242.332 157.891 243.914C156.703 240.019 155.66 236.826 155.66 236.826C155.66 236.826 157.024 235.625 159.187 233.606C153.279 234.397 147.998 235.564 147.657 237.849Z" fill="#DDE7FF" stroke="#263238" stroke-linejoin="round"/>
<path d="M161.022 214.565C161.616 217.546 165.252 220.787 168.813 223.645C171.85 220.213 174.608 216.545 177.062 212.675C169.632 211.87 160.176 210.335 161.022 214.565Z" fill="#DDE7FF" stroke="#263238" stroke-linejoin="round"/>
<path d="M166.48 200.006C169.83 203.103 175.663 205.17 180.002 207.128C180.384 206.255 180.725 205.382 181.005 204.522C182.126 201.171 183.037 197.753 183.734 194.288C176.113 194.677 162.107 195.974 166.48 200.006Z" fill="#DDE7FF" stroke="#263238" stroke-linejoin="round"/>
<path d="M165.566 300.029C167.613 298.589 163.519 291.385 163.096 290.354C162.673 289.324 161.65 287.066 161.65 287.066C161.65 287.066 161.65 283.873 161.65 279.384C155.878 282.932 151.041 281.874 148.455 280.749C150.639 287.1 151.983 292.19 151.983 292.19C151.983 292.19 148.899 296.283 146.013 298.569C143.127 300.854 138.399 302.485 138.809 304.334C139.218 306.182 157.543 304.334 157.543 304.334C157.543 304.334 163.506 301.475 165.566 300.029Z" fill="#6C6060" stroke="#263238" stroke-linejoin="round"/>
<path d="M165.566 300.029C167.456 298.705 164.133 292.524 163.267 290.73C160.756 295.082 156.711 294.475 156.711 294.475C156.252 293.545 155.625 292.708 154.862 292.006C153.422 290.566 151.976 292.21 151.976 292.21C151.976 292.21 148.892 296.304 146.006 298.589C143.12 300.875 138.392 302.505 138.802 304.354C139.211 306.203 157.536 304.354 157.536 304.354C157.536 304.354 163.506 301.475 165.566 300.029Z" fill="white" stroke="#263238" stroke-linejoin="round"/>
<path d="M128.309 182.697L128.923 188.837C133.199 191.92 138.266 193.719 143.529 194.022C152.18 194.432 163.089 193.606 170.294 191.975C177.498 190.345 185.112 189.301 185.303 187.445C185.494 185.59 185.508 180.241 185.508 180.241C185.508 180.241 175.833 183.536 160.19 184.566C144.546 185.597 138.358 185.385 135.076 184.15C132.894 183.371 130.619 182.882 128.309 182.697Z" fill="#A3B8E8" stroke="#263238" stroke-miterlimit="10"/>
<path d="M148.305 106.737C148.305 106.737 137.144 114.501 133.733 122.23C130.322 129.96 125.314 137.922 125.546 145.201C125.744 150.049 126.506 154.857 127.818 159.528C128.275 161.575 123.499 179.088 127.135 183.632C130.772 188.176 144.191 190.686 156.247 189.09C168.302 187.493 181.489 186.136 184.669 183.182C187.848 180.228 189.315 172.805 187.677 170.485C186.04 168.166 183.986 145.427 183.986 140.651C183.986 135.875 187.398 122.005 187.398 122.005C187.398 122.005 192.173 113.361 191.041 110.182C189.908 107.003 181.94 102.903 176.959 102.445C171.979 101.988 170.137 101.313 164.454 101.538C158.771 101.763 150.823 104.199 148.305 106.737Z" fill="#A3B8E8" stroke="#263238" stroke-miterlimit="10"/>
<path d="M191.041 110.182C189.922 106.996 181.94 102.903 176.96 102.445C171.979 101.988 170.137 101.313 164.454 101.538C158.771 101.763 150.844 104.199 148.326 106.737C148.326 106.737 137.165 114.501 133.753 122.23C132.798 124.393 131.707 126.563 130.677 128.739C130.342 130.454 130.115 132.188 129.994 133.931C129.844 137.751 129.844 143.346 129.844 143.346C129.844 143.346 131.461 145.263 131.611 142.609C131.611 142.609 138.379 133.337 141.62 129.367C144.86 125.396 157.373 111.847 167.545 109.643C177.717 107.439 182.554 110.08 184.601 112.584C186.647 115.087 187.405 122.005 187.405 122.005C187.405 122.005 192.174 113.361 191.041 110.182Z" fill="#A3B8E8" stroke="#263238" stroke-miterlimit="10"/>
<path d="M150.864 62.0569C150.864 62.0569 150.864 58.134 147.282 53.3584C143.7 48.5827 133.808 48.7533 129.032 55.4051C124.256 62.0569 130.226 66.4915 129.203 68.0265C128.179 69.5616 120.334 71.7788 122.721 75.19C125.109 78.6012 128.179 79.7883 127.838 80.3C127.497 80.8117 122.892 83.3701 127.327 85.4168C131.761 87.4635 132.614 87.6341 132.614 87.6341C132.614 87.6341 129.885 89.1691 131.079 90.5336C132.273 91.8981 134.661 90.363 134.661 90.363C134.661 90.363 133.808 88.3163 134.831 87.6341C135.854 86.9518 137.56 85.0757 136.878 83.7112C136.196 82.3467 135.172 81.3234 136.537 80.3C137.901 79.2766 139.266 77.0594 139.948 76.2066C140.63 75.3538 146.6 65.4681 147.794 65.4681C148.63 65.3647 149.402 64.9627 149.966 64.336C150.53 63.7092 150.849 62.9 150.864 62.0569Z" fill="#263238" stroke="#263238" stroke-linejoin="round"/>
<path d="M147.146 109.95C147.146 109.95 137.144 118.594 133.296 127.463C129.448 136.332 129.428 144.976 130.567 144.062C131.707 143.148 136.25 130.192 141.258 123.827C144.691 119.617 148.609 115.827 152.931 112.536L162.155 104.267L147.146 109.95Z" fill="#DDE7FF" stroke="#263238" stroke-linejoin="round"/>
<path d="M148.305 61.8865C148.305 61.8865 139.436 65.9799 138.072 71.4378C136.707 76.8957 138.583 86.2697 138.583 86.2697C138.583 86.2697 136.537 91.2159 138.242 94.9682C139.948 98.7205 142.506 103.326 144.723 104.861C145.808 105.676 147.017 106.31 148.305 106.737C148.305 106.737 145.747 110.83 145.917 113.73C146.088 116.629 148.987 115.777 152.91 112.536C156.833 109.295 161.431 104.69 164.16 103.496C166.889 102.302 167.913 101.791 167.913 101.791C167.913 101.791 167.401 92.751 167.401 90.022C167.401 87.293 172.859 79.4473 169.959 72.12C167.06 64.7928 157.174 58.1341 148.305 61.8865Z" fill="#6C6060" stroke="#263238" stroke-miterlimit="10"/>
<path d="M141.142 86.0991L140.46 88.487C140.46 88.487 141.313 89.3398 144.212 88.6575" stroke="#263238" stroke-miterlimit="10"/>
<path d="M145.065 87.1223C145.065 87.1223 142.507 92.5802 143.701 93.0919C144.895 93.6036 148.476 92.7508 148.476 92.7508" stroke="#263238" stroke-miterlimit="10"/>
<path d="M149.5 85.4166L148.817 88.3161C149.648 88.5974 150.535 88.6667 151.399 88.5177C152.263 88.3688 153.076 88.0064 153.764 87.4633" stroke="#263238" stroke-miterlimit="10"/>
<path d="M140.118 83.0289C140.118 83.0289 142.335 80.8116 144.553 83.0289" stroke="#263238" stroke-miterlimit="10"/>
<path d="M147.964 81.4938C149.019 80.9259 150.236 80.7347 151.415 80.9518C152.593 81.1688 153.662 81.7812 154.446 82.6877" stroke="#263238" stroke-miterlimit="10"/>
<path d="M142.848 97.5265C142.848 97.5265 144.212 100.085 146.6 100.085C148.988 100.085 151.205 97.356 151.205 97.356C151.205 97.356 144.553 97.6971 142.848 97.5265Z" fill="#DDE7FF" stroke="#263238" stroke-linejoin="round"/>
<path d="M142.848 97.5264C146.025 98.2965 149.363 98.058 152.399 96.8441C152.399 96.8441 149.499 97.3558 148.476 97.1852C147.453 97.0147 143.189 96.6736 142.848 97.5264Z" fill="#DDE7FF" stroke="#263238" stroke-linejoin="round"/>
<path d="M167.409 90.022C167.409 87.293 172.867 79.4473 169.967 72.12C167.068 64.7928 157.182 58.1341 148.313 61.8865C148.313 61.8865 140.406 65.5364 138.373 70.5372C138.441 70.4417 138.509 70.3394 138.591 70.2439C139.709 68.9688 140.968 67.8244 142.343 66.8327C142.343 66.8327 141.661 69.5616 142.173 69.7322C142.684 69.9028 145.413 68.1972 145.413 68.1972C145.413 68.1972 143.367 71.2672 145.413 71.4378C147.46 71.6084 153.43 68.3677 153.43 68.3677C153.43 68.3677 152.236 71.2672 153.6 71.4378C154.965 71.6084 157.516 71.7789 157.516 71.7789C157.516 71.7789 156.5 74.3373 157.516 75.3539C157.862 75.6624 158.268 75.8972 158.708 76.0438C159.147 76.1904 159.613 76.2458 160.075 76.2067C160.075 76.2067 158.369 78.5945 159.051 79.4473C159.715 80.4748 160.285 81.5593 160.757 82.6879C160.757 82.6879 162.462 77.9123 164.68 82.5174C165.331 83.7827 165.612 85.2058 165.491 86.6236C165.37 88.0414 164.853 89.3965 163.997 90.5337C163.997 90.5337 164.755 92.6554 167.409 91.6525C167.409 90.9976 167.409 90.4382 167.409 90.022Z" fill="#263238" stroke="#263238" stroke-linejoin="round"/>
<path d="M138.072 73.8254C137.929 73.4729 137.844 73.0998 137.82 72.7202C137.82 72.9385 137.758 73.1637 137.731 73.4025L138.072 73.8254Z" fill="white" stroke="#263238" stroke-linejoin="round"/>
<path d="M160.067 84.7342C160.067 84.7342 160.579 78.594 164.16 80.9819C167.742 83.3697 165.695 88.657 165.013 90.3626C164.331 92.0682 160.579 91.8977 160.579 90.8743" fill="#6C6060"/>
<path d="M160.067 84.7342C160.067 84.7342 160.579 78.594 164.16 80.9819C167.742 83.3697 165.695 88.657 165.013 90.3626C164.331 92.0682 160.579 91.8977 160.579 90.8743" stroke="#263238" stroke-linejoin="round"/>
<path d="M148.306 106.737C147.499 108.067 146.845 109.483 146.355 110.96C148.211 109.975 149.952 108.787 151.547 107.419C154.424 104.916 156.896 101.981 158.874 98.7205C158.874 98.7205 153.764 103.667 152.052 105.031C150.949 105.877 149.668 106.461 148.306 106.737Z" fill="#263238" stroke="#263238" stroke-linejoin="round"/>
<path d="M164.536 118.458C164.536 118.458 159.597 122.162 157.127 129.776C154.657 137.39 151.362 158.798 151.362 158.798C148.351 159.705 145.451 160.948 142.718 162.503C139.013 164.768 121.105 176.093 121.105 176.093L119.249 177.13L121.719 183.1C129.639 182.371 137.488 181.002 145.188 179.006C157.741 175.711 168.65 172.627 170.506 170.362C172.361 168.097 181.21 138.249 182.65 132.689C184.089 127.129 184.915 123.636 181.005 119.515" fill="#A3B8E8"/>
<path d="M164.536 118.458C164.536 118.458 159.597 122.162 157.127 129.776C154.657 137.39 151.362 158.798 151.362 158.798C148.351 159.705 145.451 160.948 142.718 162.503C139.013 164.768 121.105 176.093 121.105 176.093L119.249 177.13L121.719 183.1C129.639 182.371 137.488 181.002 145.188 179.006C157.741 175.711 168.65 172.627 170.506 170.362C172.361 168.097 181.21 138.249 182.65 132.689C184.089 127.129 184.915 123.636 181.005 119.515" stroke="#263238" stroke-miterlimit="10"/>
<path d="M166.208 151.444C166.987 150.93 167.734 150.37 168.445 149.766" stroke="#263238" stroke-linejoin="round"/>
<path d="M152.399 158.409C156.446 156.763 160.384 154.861 164.188 152.713" stroke="#263238" stroke-linejoin="round"/>
<path d="M164.87 145.27C161.459 148.237 156.922 152.228 154.241 154.91" stroke="#263238" stroke-linejoin="round"/>
<path d="M169.455 141.326C169.455 141.326 168.466 142.159 166.958 143.448" stroke="#263238" stroke-linejoin="round"/>
<path d="M152.801 159.44C152.801 159.44 157.945 160.258 159.624 159.849" stroke="#263238" stroke-linejoin="round"/>
<path d="M119.249 177.13C119.249 177.13 110.605 177.744 109.575 177.744C107.021 177.959 104.48 178.303 101.961 178.774C101.34 178.979 97.4312 183.714 97.4312 183.714C97.4312 183.714 96.6057 184.744 97.6359 184.539C98.666 184.335 101.961 183.305 101.961 183.305C101.961 183.305 106.901 184.335 108.545 184.335C110.189 184.335 115.954 183.509 115.954 183.509L121.719 183.1L119.249 177.13Z" fill="#6C6060" stroke="#263238" stroke-linejoin="round"/>
<path d="M121.923 176.114L124.598 183.114" stroke="#263238" stroke-linejoin="round"/>
<path d="M176.768 305.18C176.339 305.184 175.917 305.073 175.547 304.858C175.176 304.643 174.869 304.332 174.66 303.958C174.451 303.584 174.346 303.161 174.357 302.732C174.367 302.304 174.493 301.886 174.721 301.523L241.581 188.953C241.747 188.688 241.965 188.457 242.22 188.276C242.476 188.094 242.765 187.965 243.07 187.895C243.376 187.825 243.692 187.815 244.002 187.868C244.311 187.92 244.607 188.033 244.872 188.199C245.138 188.366 245.368 188.583 245.55 188.839C245.732 189.095 245.861 189.384 245.931 189.689C246.001 189.995 246.01 190.311 245.958 190.621C245.906 190.93 245.793 191.226 245.626 191.491L178.767 304.061C178.554 304.399 178.259 304.679 177.91 304.875C177.561 305.07 177.168 305.175 176.768 305.18Z" fill="#787878" stroke="#263238" stroke-miterlimit="10"/>
<path d="M243.634 305.18C243.226 305.184 242.823 305.084 242.464 304.888C242.106 304.692 241.804 304.407 241.587 304.061L174.728 191.491C174.561 191.226 174.449 190.93 174.396 190.621C174.344 190.311 174.353 189.995 174.423 189.689C174.493 189.384 174.623 189.095 174.804 188.839C174.986 188.583 175.216 188.366 175.482 188.199C175.747 188.033 176.043 187.92 176.352 187.868C176.662 187.815 176.978 187.825 177.284 187.895C177.589 187.965 177.878 188.094 178.134 188.276C178.39 188.457 178.607 188.688 178.774 188.953L245.633 301.523C245.858 301.886 245.982 302.304 245.992 302.731C246.002 303.159 245.897 303.581 245.688 303.955C245.479 304.328 245.174 304.638 244.804 304.854C244.435 305.069 244.014 305.182 243.586 305.18H243.634Z" fill="#787878" stroke="#263238" stroke-miterlimit="10"/>
<path d="M190.413 305.18C189.984 305.184 189.562 305.073 189.192 304.858C188.821 304.643 188.514 304.332 188.305 303.958C188.096 303.584 187.991 303.161 188.002 302.732C188.012 302.304 188.138 301.886 188.366 301.523L255.226 188.953C255.392 188.688 255.61 188.457 255.865 188.276C256.121 188.094 256.41 187.965 256.715 187.895C257.021 187.825 257.337 187.815 257.647 187.868C257.956 187.92 258.252 188.033 258.517 188.199C258.783 188.366 259.013 188.583 259.195 188.839C259.377 189.095 259.506 189.384 259.576 189.689C259.646 189.995 259.655 190.311 259.603 190.621C259.551 190.93 259.438 191.226 259.271 191.491L192.412 304.061C192.199 304.399 191.904 304.679 191.555 304.875C191.206 305.07 190.813 305.175 190.413 305.18Z" fill="white" stroke="#263238" stroke-linejoin="round"/>
<path d="M257.279 305.18C256.871 305.184 256.468 305.084 256.109 304.888C255.751 304.692 255.449 304.407 255.232 304.061L188.373 191.491C188.206 191.226 188.094 190.93 188.041 190.621C187.989 190.311 187.998 189.995 188.068 189.689C188.138 189.384 188.268 189.095 188.449 188.839C188.631 188.583 188.861 188.366 189.127 188.199C189.392 188.033 189.688 187.92 189.997 187.868C190.307 187.815 190.623 187.825 190.929 187.895C191.234 187.965 191.523 188.094 191.779 188.276C192.035 188.457 192.252 188.688 192.419 188.953L259.278 301.523C259.503 301.886 259.627 302.304 259.637 302.731C259.647 303.159 259.542 303.581 259.333 303.955C259.124 304.328 258.819 304.638 258.449 304.854C258.08 305.069 257.659 305.182 257.231 305.18H257.279Z" fill="white" stroke="#263238" stroke-linejoin="round"/>
<path d="M170.819 100.549H235.12C237.805 100.549 240.38 101.616 242.279 103.514C244.178 105.413 245.244 107.988 245.244 110.673V185.099H170.819V100.549Z" fill="white" stroke="#263238" stroke-linejoin="round"/>
<path d="M190.603 100.549H254.904C257.589 100.549 260.164 101.616 262.063 103.514C263.962 105.413 265.028 107.988 265.028 110.673V185.099H190.603V100.549Z" fill="white" stroke="#263238" stroke-linejoin="round"/>
<path d="M190.583 125L245.687 100.549H190.583V125Z" fill="#5388FF" stroke="#263238" stroke-linejoin="round"/>
<path d="M195.42 185.099H265.009V154.459L195.42 185.099Z" fill="#5388FF" stroke="#263238" stroke-linejoin="round"/>
<path d="M209.144 134.308L212.037 149.781L214.909 134.308H216.738L213.408 152.046H210.488L207.132 134.308H209.144Z" fill="#263238"/>
<path d="M218.083 138.572C218.083 135.843 219.447 134.103 222.176 134.103C224.905 134.103 226.269 135.857 226.269 138.572V147.768C226.269 150.497 224.905 152.244 222.176 152.244C219.447 152.244 218.083 150.463 218.083 147.768V138.572ZM220.041 147.871C220.041 149.494 220.723 150.436 222.149 150.436C223.575 150.436 224.257 149.494 224.257 147.871V138.476C224.257 136.873 223.575 135.911 222.149 135.911C220.723 135.911 220.041 136.873 220.041 138.476V147.871Z" fill="#263238"/>
<path d="M230.697 152.046V136.089H227.422V134.308H235.929V136.116H232.655V152.046H230.697Z" fill="#263238"/>
<path d="M243.584 142.154V143.934H239.238V150.259H244.573V152.046H237.26V134.308H244.573V136.116H239.238V142.181L243.584 142.154Z" fill="#263238"/>
<path d="M264.722 185.099H170.839V192.937H264.722V185.099Z" fill="#303030" stroke="#263238" stroke-miterlimit="10"/>
<path d="M264.716 185.099H190.522V192.937H264.716V185.099Z" fill="#787878" stroke="#263238" stroke-miterlimit="10"/>
<path d="M37.3059 305.179C36.8773 305.184 36.4554 305.073 36.0846 304.858C35.7137 304.643 35.4076 304.332 35.1982 303.958C34.9889 303.584 34.8841 303.16 34.8948 302.732C34.9055 302.303 35.0314 301.886 35.2592 301.523L102.119 188.953C102.285 188.688 102.503 188.457 102.758 188.276C103.014 188.094 103.303 187.964 103.608 187.894C103.914 187.824 104.231 187.815 104.54 187.868C104.849 187.92 105.145 188.033 105.41 188.199C105.676 188.366 105.906 188.583 106.088 188.839C106.27 189.095 106.399 189.383 106.469 189.689C106.539 189.995 106.548 190.311 106.496 190.62C106.444 190.93 106.331 191.225 106.164 191.491L39.3049 304.061C39.0917 304.399 38.7971 304.679 38.4479 304.875C38.0987 305.07 37.7061 305.175 37.3059 305.179Z" fill="#787878" stroke="#263238" stroke-miterlimit="10"/>
<path d="M104.172 305.179C103.764 305.184 103.361 305.083 103.003 304.887C102.645 304.691 102.342 304.407 102.125 304.061L35.266 191.491C35.0993 191.225 34.9866 190.93 34.9343 190.62C34.882 190.311 34.8911 189.995 34.9611 189.689C35.0311 189.383 35.1607 189.095 35.3423 188.839C35.524 188.583 35.7542 188.366 36.0198 188.199C36.2855 188.033 36.5813 187.92 36.8905 187.868C37.1997 187.815 37.5162 187.824 37.8219 187.894C38.1275 187.964 38.4164 188.094 38.672 188.276C38.9277 188.457 39.145 188.688 39.3116 188.953L106.171 301.523C106.507 302.058 106.616 302.706 106.476 303.322C106.335 303.938 105.956 304.474 105.421 304.811C105.046 305.046 104.614 305.173 104.172 305.179Z" fill="#787878" stroke="#263238" stroke-miterlimit="10"/>
<path d="M50.951 305.179C50.5223 305.184 50.1005 305.073 49.7296 304.858C49.3587 304.643 49.0526 304.332 48.8432 303.958C48.6339 303.584 48.5291 303.16 48.5398 302.732C48.5505 302.303 48.6764 301.886 48.9042 301.523L115.764 188.953C115.93 188.688 116.148 188.457 116.403 188.276C116.659 188.094 116.948 187.964 117.253 187.894C117.559 187.824 117.876 187.815 118.185 187.868C118.494 187.92 118.79 188.033 119.055 188.199C119.321 188.366 119.551 188.583 119.733 188.839C119.915 189.095 120.044 189.383 120.114 189.689C120.184 189.995 120.193 190.311 120.141 190.62C120.089 190.93 119.976 191.225 119.809 191.491L52.9499 304.061C52.7367 304.399 52.4421 304.679 52.0929 304.875C51.7437 305.07 51.3511 305.175 50.951 305.179Z" fill="white" stroke="#263238" stroke-linejoin="round"/>
<path d="M117.817 305.179C117.408 305.184 117.006 305.083 116.647 304.887C116.289 304.691 115.987 304.407 115.77 304.061L48.9105 191.491C48.7438 191.225 48.6312 190.93 48.5789 190.62C48.5266 190.311 48.5357 189.995 48.6057 189.689C48.6757 189.383 48.8052 189.095 48.9868 188.839C49.1685 188.583 49.3987 188.366 49.6644 188.199C49.93 188.033 50.2259 187.92 50.5351 187.868C50.8443 187.815 51.1607 187.824 51.4664 187.894C51.7721 187.964 52.061 188.094 52.3166 188.276C52.5722 188.457 52.7895 188.688 52.9562 188.953L119.816 301.523C120.151 302.058 120.261 302.706 120.12 303.322C119.98 303.938 119.6 304.474 119.065 304.811C118.691 305.046 118.259 305.173 117.817 305.179Z" fill="white" stroke="#263238" stroke-linejoin="round"/>
<path d="M31.377 100.549H95.678C98.3632 100.549 100.938 101.616 102.837 103.514C104.736 105.413 105.802 107.988 105.802 110.673V185.099H31.377V100.549Z" fill="white" stroke="#263238" stroke-linejoin="round"/>
<path d="M51.1274 100.549H115.422C118.107 100.549 120.682 101.615 122.581 103.514C124.479 105.413 125.546 107.988 125.546 110.673V185.099H51.1274V100.549Z" fill="white" stroke="#263238" stroke-linejoin="round"/>
<path d="M51.1274 125L106.225 100.549H51.1274V125Z" fill="#C9D9FF" stroke="#263238" stroke-linejoin="round"/>
<path d="M55.9585 185.099H125.554V154.459L55.9585 185.099Z" fill="#C9D9FF" stroke="#263238" stroke-linejoin="round"/>
<path d="M69.6903 131.658L72.583 147.131L75.4484 131.658H77.2768L73.9475 149.396H71.0548L67.6777 131.658H69.6903Z" fill="#263238"/>
<path d="M78.6201 135.922C78.6201 133.193 79.9846 131.453 82.7136 131.453C85.4425 131.453 86.807 133.207 86.807 135.922V145.119C86.807 147.848 85.4425 149.594 82.7136 149.594C79.9846 149.594 78.6201 147.814 78.6201 145.119V135.922ZM80.6054 145.221C80.6054 146.845 81.2877 147.786 82.7136 147.786C84.1394 147.786 84.8217 146.845 84.8217 145.221V135.827C84.8217 134.223 84.1394 133.261 82.7136 133.261C81.2877 133.261 80.6054 134.223 80.6054 135.827V145.221Z" fill="#263238"/>
<path d="M91.221 149.396V133.439H87.9463V131.658H96.4538V133.466H93.1791V149.396H91.221Z" fill="#263238"/>
<path d="M104.122 139.504V141.285H99.7832V147.609H105.118V149.396H97.7979V131.658H105.118V133.466H99.7832V139.531L104.122 139.504Z" fill="#263238"/>
<path d="M125.26 185.099H31.377V192.937H125.26V185.099Z" fill="#303030" stroke="#263238" stroke-miterlimit="10"/>
<path d="M125.253 185.099H51.0596V192.937H125.253V185.099Z" fill="#787878" stroke="#263238" stroke-miterlimit="10"/>
<path d="M0 305.18H321.348" stroke="#263238" stroke-linejoin="round"/>
</svg>
